<?xml version="1.0" encoding="UTF-8"?>
<svg id="Layer_2" data-name="Layer 2" xmlns="http://www.w3.org/2000/svg" viewBox="0 0 1170.37 1117.82">
  <defs>
    <style>
      .cls-1 {
        fill: none;
        stroke: #000;
        stroke-miterlimit: 10;
      }

      .cls-2 {
        fill: #ffdbc9;
      }

      .cls-2, .cls-3, .cls-4, .cls-5 {
        stroke-width: 0px;
      }

      .cls-4 {
        fill: #9a837a;
      }

      .cls-5 {
        fill: #7a6c69;
      }
    </style>
  </defs>
  <g>
    <g>
      <path class="cls-4" d="m304.04,895.06s30.13-8.47,25.36,16.28c-10.86-.51-21.61-2.42-28.94-4.54-18.89-5.45-44.7-15.75-29.98-37.69h.01c.75-.14,32.04-5.84,33.55,25.95Z"/>
      <path class="cls-4" d="m534.68,909.47l-25.36.13s-15.9-4.15-9.72-19.52h.01c.7-.11,28.01-4.19,35.07,19.39Z"/>
      <path class="cls-4" d="m958.34,904.42s18.5-17.42,29.16,5.59c-9.18,1.12-19.1,2.16-29.33,3.43-32.37,4.02-30.41-14.9-24.54-29.43.5-.05,19-1.59,24.71,20.41Z"/>
      <path class="cls-4" d="m738.25,911.57s17.17-17.51,28.93,7.08c-18.83,3.29-41.49,2.98-56.67-3.34-11.39-4.75-17.95-9.87-21.04-14.88,0,0,33.97-22.9,48.78,11.14Z"/>
      <path class="cls-5" d="m1024.28,672.93c25.53,20.08,21.11,79.66,21.11,79.66-30.64,4.59-74.19-229.84-74.19-229.84l-.21-.07c.73-2.2,1.22-4.05,1.47-5.49,2.01-11.78,11.14-43.23,3.94-83.79,2.36,3.88,14.92,25.85,15.54,56.38.68,33.7,6.81,163.06,32.34,183.15Z"/>
      <path class="cls-5" d="m1032.98,871.82c16.17,27.8-8.62,33.67-45.48,38.19-10.66-23.01-29.16-5.59-29.16-5.59-5.71-22-24.21-20.46-24.71-20.41,3.43-8.51,8.2-15.5,8.2-15.5,8.17-126.13-76.09-175.15-76.09-175.15,25.29-15.48,84.76-120.1,102.08-162.27,0,0-1.99,52.99,3.45,127.54,5.45,74.56,25.04,120.01,36.68,137.88,11.73,18,14.39,18.18,15.83,32.42,2.17,21.45-3.06,21.83,9.2,42.89Z"/>
      <path class="cls-5" d="m754.88,643.25c-91.79,27.86-187.35-28.87-187.35-28.87,0,0,8.17,62.64,9.53,98.38,1.36,35.75,16.68,152.51,30.3,157.96,13.62,5.45,9.53,43.23-15.66,38.47l-57.02.28c-7.06-23.58-34.37-19.5-35.07-19.39,1.05-2.62,2.74-5.58,5.28-8.89,17.36-22.73,16.34-15.24,4.09-92.51,0,0-24.77-80.04-30.09-79.51-44.82,39.61-97.7,87.29-100.3,100.61-4.08,20.94-22.98,39.83-10.72,74.04,8.34,23.31-15.29,28.61-38.47,27.52,4.77-24.75-25.36-16.28-25.36-16.28-1.51-31.79-32.8-26.09-33.55-25.95,3.17-4.74,8.24-10.03,15.68-15.92,41.87-33.19,6.64-63.83,51.06-123.58,44.43-59.74,44.43-51.57,51.06-75.06,6.64-23.49,22.47-65.87,16.86-67.92-4.86-1.76-10.76-30.35-12.27-38.07,2.33-.66,4.62-1.54,6.84-2.65,21-12,30-33,44-52,1-1,2-1,3-2,9-13,22-22,36-27,28-11,55-23,73-49,14-21,20-45,20-69-1-17-5-34-13-50l-3-3c-8.7-16.44-21.62-29.61-36.82-39.27,36.35,1.16,56.88,7.74,56.88,7.74,67.92,26.55,111.32,8.17,111.32,8.17,86.3-40.85,183.83,18.89,183.83,18.89,68.91,49.93,93.99,101.85,101.46,143.95h.01c7.2,40.57-1.93,72.02-3.94,83.8-.25,1.44-.74,3.29-1.47,5.49-.79,2.4-1.86,5.23-3.17,8.41-17.32,42.17-76.79,146.79-102.08,162.27-28.93,17.7-51.74,133.44-51.74,133.44-1.02,16.68-25.19,51.75-14.3,69.79,5.83,9.66-10.8,18.25-32.52,22.06-11.76-24.59-28.93-7.08-28.93-7.08-14.81-34.04-48.78-11.14-48.78-11.14-5.79-9.37.49-18.38,9.8-23.92,14.3-8.51,30.64-60.26,30.64-91.92,0-40.9,22.13-122.89,25.19-126.98,3.07-4.08.68-8.17.68-8.17-.33-2.08-.64-4.15-.9-6.19Z"/>
      <path class="cls-3" d="m271.36,383.91c4.32,0,7.83,4.65,7.83,10.38s-3.51,10.39-7.83,10.39-7.83-4.65-7.83-10.39,3.5-10.38,7.83-10.38Z"/>
      <path class="cls-2" d="m225.66,563.51c-9.3,8.07-18.85,14.56-26.13,17.17-8.98,3.21-25.88,8.54-46.17,7.96-20.5-.59-44.44-7.19-67.19-28.05,0,0,18.91,3.46,43.67,2.51,7.04-.26,14.55-.89,22.24-2.05,29.85-4.51,62.32-17.13,79.79-48.46,0,0,32.68-6.81,25.19,12.26-1.65,4.21-4.5,8.96-8.13,13.88-6.17,8.39-14.61,17.27-23.27,24.78Z"/>
      <path class="cls-5" d="m340.41,503.1c-17.14.82-35.38,1.04-52.69,6.81-11.89,10.9-20.83,29.65-38.79,28.82,3.63-4.92,6.48-9.67,8.13-13.88,7.49-19.07-25.19-12.26-25.19-12.26-17.47,31.33-49.94,43.95-79.79,48.46.03-2.61-.35-9.17.64-13.14.68-3.17,1.41-6.29,2.16-9.38,2.55-10.56,5.29-20.79,6.84-31.62,4-28,6-55,13-83,9-31,21-60,37-88,.38-.68.74-1.37,1.08-2.07,2.52-5.03,4.22-10.35,5.77-15.78h.01c1.04-3.68,2.02-7.42,3.14-11.15,5-11,13-20,22-28,12-10,27-15,42-18,21-4,41-5,62-5,5,1,11,0,16-2,34-12,69-21,105-18,19.11,2.07,37.95,8.4,54.18,18.73,15.2,9.66,28.12,22.83,36.82,39.27l3,3c8,16,12,33,13,50,0,24-6,48-20,69-18,26-45,38-73,49-14,5-27,14-36,27-1,1-2,1-3,2-14,19-23,40-44,52-2.22,1.11-4.51,1.99-6.84,2.65-12.42,3.54-26.06.92-36.16-6.65-8.6-11.46-13.91-24.9-16.31-38.81Zm-61.22-108.81c0-5.73-3.51-10.38-7.83-10.38s-7.83,4.65-7.83,10.38,3.5,10.39,7.83,10.39,7.83-4.65,7.83-10.39Z"/>
      <path class="cls-5" d="m225.66,563.51c-4.94,8.43-4.94,16.42-5.94,25.4-2,11-2.85,21.49-3.77,32.45-.49,5.83-1.23,7.55-1.23,11.55,0,14-1,27-3,41-1,7,0,15,0,22-1,11-3,22-5,33-5,30-16,55-23,85-1,6,0,11,2,16,5,12,19,13,28,21-1,5-6,7-7,10-3,6,7,10,6,16,0,6-10,5-15,5-9-1-18-6-25-13-4-5-6-10-8-15-13-45-8-90-1-135,4-33-5-64-8-97v-9c-1-8-2-16-2.38-23.71l.02-.56c20.29.58,37.19-4.75,46.17-7.96,7.28-2.61,16.83-9.1,26.13-17.17Z"/>
      <path class="cls-2" d="m62.35,517.59c26.93,15.35,59.64,17.35,90.76,20.51l1.77.43c-.75,3.09-1.48,6.21-2.16,9.38-.99,3.97-.61,10.53-.64,13.14-7.69,1.16-15.2,1.79-22.24,2.05-6.64-1.48-13.2-3.37-19.56-5.79-19.91-7.55-38.56-20.52-48.47-39.84.64,1.09,2.86,4.46,3.41,3.04.19-.49-.55-1.22-1.41-1.87.19.08.38.17.57.24-.64-.47-1.34-.89-2.03-1.29Z"/>
    </g>
    <g>
      <path class="cls-1" d="m153.34,589.2c.38,7.71,1.38,15.71,2.38,23.71v9c3,33,12,64,8,97-7,45-12,90,1,135,2,5,4,10,8,15,7,7,16,12,25,13,5,0,15,1,15-5,1-6-9-10-6-16,1-3,6-5,7-10-9-8-23-9-28-21-2-5-3-10-2-16,7-30,18-55,23-85,2-11,4-22,5-33,0-7-1-15,0-22,2-14,3-27,3-41,0-4,.74-5.72,1.23-11.55.92-10.96,1.77-21.45,3.77-32.45,1-8.98,1-16.97,5.94-25.4,0-.02.02-.03.03-.05"/>
      <path class="cls-1" d="m218.57,318.06c-1.55,5.43-3.25,10.75-5.77,15.78-.34.7-.7,1.39-1.08,2.07-16,28-28,57-37,88-7,28-9,55-13,83-1.55,10.83-4.29,21.06-6.84,31.62-.75,3.09-1.48,6.21-2.16,9.38-.99,3.97-.61,10.53-.64,13.14v.07"/>
      <path class="cls-1" d="m404.12,293.02c-2.4,1.89-4.4,1.89-7.4,2.89-8,4-14,10-20,17-11,14-16,30-17,47,0,12,3,24,5,36,1,9-1,17-4,25-7,17-18,32-21,51-1.28,10.24-1.1,20.84.69,31.19,2.4,13.91,7.71,27.35,16.31,38.81,10.1,7.57,23.74,10.19,36.16,6.65,2.33-.66,4.62-1.54,6.84-2.65,21-12,30-33,44-52,1-1,2-1,3-2,9-13,22-22,36-27,28-11,55-23,73-49,14-21,20-45,20-69-1-17-5-34-13-50l-3-3c-8.7-16.44-21.62-29.61-36.82-39.27-16.23-10.33-35.07-16.66-54.18-18.73-36-3-71,6-105,18-5,2-11,3-16,2-21,0-41,1-62,5-15,3-30,8-42,18-9,8-17,17-22,28-1.12,3.73-2.1,7.47-3.14,11.15"/>
      <path class="cls-1" d="m270.49,869.11c3.17-4.74,8.24-10.03,15.68-15.92,41.87-33.19,6.64-63.83,51.06-123.58,44.43-59.74,44.43-51.57,51.06-75.06,6.64-23.49,22.47-65.87,16.86-67.92-4.86-1.76-10.76-30.35-12.27-38.07-.24-1.21-.37-1.91-.37-1.91"/>
      <path class="cls-1" d="m585.18,517.19s-22.25,113.87-48.29,139.91c-9.46,9.46-32.42,29.45-58,52.07-44.82,39.61-97.7,87.29-100.3,100.61-4.08,20.94-22.98,39.83-10.72,74.04,8.34,23.31-15.29,28.61-38.47,27.52-10.86-.51-21.61-2.42-28.94-4.54-18.89-5.45-44.7-15.75-29.98-37.69"/>
      <path class="cls-1" d="m499.6,890.08c-6.18,15.37,9.72,19.52,9.72,19.52l25.36-.13,57.02-.28c25.19,4.76,29.28-33.02,15.66-38.47-13.62-5.45-28.94-122.21-30.3-157.96-1.36-35.74-9.53-98.38-9.53-98.38,0,0,95.56,56.73,187.35,28.87"/>
      <path class="cls-1" d="m478.89,709.17c5.32-.53,30.09,79.51,30.09,79.51,12.25,77.27,13.27,69.78-4.09,92.51-2.54,3.31-4.23,6.27-5.28,8.89"/>
      <path class="cls-1" d="m976.39,433.39c-7.47-42.1-32.55-94.02-101.46-143.95,0,0-97.53-59.74-183.83-18.89,0,0-43.4,18.38-111.32-8.17,0,0-20.53-6.58-56.88-7.74-1.08-.04-2.17-.07-3.27-.09"/>
      <path class="cls-1" d="m809.91,480.25s-68.77,58.62-55.03,163c.26,2.04.57,4.11.9,6.19,0,0,2.39,4.09-.68,8.17-3.06,4.09-25.19,86.08-25.19,126.98,0,31.66-16.34,83.41-30.64,91.92-9.31,5.54-15.59,14.55-9.8,23.92,3.09,5.01,9.65,10.13,21.04,14.88,15.18,6.32,37.84,6.63,56.67,3.34,21.72-3.81,38.35-12.4,32.52-22.06-10.89-18.04,13.28-53.11,14.3-69.79,0,0,22.81-115.74,51.74-133.44,25.29-15.48,84.76-120.1,102.08-162.27,1.31-3.18,2.38-6.01,3.17-8.41.73-2.2,1.22-4.05,1.47-5.49,2.01-11.78,11.14-43.23,3.94-83.79"/>
      <path class="cls-1" d="m865.74,693.36s84.26,49.02,76.09,175.15c0,0-4.77,6.99-8.2,15.5-5.87,14.53-7.83,33.45,24.54,29.43,10.23-1.27,20.15-2.31,29.33-3.43,36.86-4.52,61.65-10.39,45.48-38.19-12.26-21.06-7.03-21.44-9.2-42.89-1.44-14.24-4.1-14.42-15.83-32.42-11.64-17.87-31.23-63.32-36.68-137.88-5.44-74.55-3.45-127.54-3.45-127.54"/>
      <path class="cls-1" d="m971.2,522.75s43.55,234.43,74.19,229.84c0,0,4.42-59.58-21.11-79.66-25.53-20.09-31.66-149.45-32.34-183.15-.62-30.53-13.18-52.5-15.54-56.38h-.01c-.25-.41-.38-.61-.38-.61"/>
      <line class="cls-1" x1="218.57" y1="318.06" x2="218.58" y2="318.06"/>
      <path class="cls-1" d="m270.48,869.11h.01"/>
      <path class="cls-1" d="m499.6,890.08h.01"/>
    </g>
  </g>
  <path class="cls-3" d="m266.51,393.76c6.43,0,6.45-10,0-10s-6.45,10,0,10h0Z"/>
  <path class="cls-3" d="m267.28,394.53c6.43,0,6.45-10,0-10s-6.45,10,0,10h0Z"/>
  <path class="cls-3" d="m266.51,396.57c6.43,0,6.45-10,0-10s-6.45,10,0,10h0Z"/>
  <path class="cls-3" d="m267.28,398.1c6.43,0,6.45-10,0-10s-6.45,10,0,10h0Z"/>
  <path class="cls-3" d="m268.04,400.14c6.43,0,6.45-10,0-10s-6.45,10,0,10h0Z"/>
  <path class="cls-3" d="m268.81,394.53c6.43,0,6.45-10,0-10s-6.45,10,0,10h0Z"/>
  <path class="cls-3" d="m268.81,392.48c6.43,0,6.45-10,0-10s-6.45,10,0,10h0Z"/>
  <path class="cls-3" d="m267.79,390.95c6.43,0,6.45-10,0-10s-6.45,10,0,10h0Z"/>
  <path class="cls-3" d="m277.57,391.61c-.88-3.18-1.34-7.2-3.92-9.5-2.82-2.52-6.99-1.82-9.39.88-4.69,5.28-.39,15.45,2.89,20.4,3.54,5.34,12.21.34,8.63-5.05-1.72-2.59-4.38-7.32-3.17-10.49l-1.29,2.21-.53.25h-2.66l.64.15-2.21-1.29c-.23-.53-.23-.46-.02.2l.45,1.63.91,3.26c1.72,6.19,11.37,3.56,9.64-2.66h0Z"/>
</svg>