<?xml version="1.0" encoding="UTF-8"?>
<svg id="Layer_2" data-name="Layer 2" xmlns="http://www.w3.org/2000/svg" viewBox="0 0 1080 645">
  <defs>
    <style>
      .cls-1 {
        fill: none;
      }

      .cls-1, .cls-2, .cls-3, .cls-4, .cls-5 {
        stroke: #000;
        stroke-miterlimit: 10;
      }

      .cls-6, .cls-7 {
        stroke-width: 0px;
      }

      .cls-6, .cls-2 {
        fill: #ff7232;
      }

      .cls-3 {
        fill: #5f0a26;
      }

      .cls-4 {
        fill: #ff5e27;
      }

      .cls-5 {
        fill: #fff;
      }
    </style>
  </defs>
  <path class="cls-4" d="m205.76,276.66c-12.79,18.13-35.89,33.78-74.63,43.44l-3.96,2.25c-.72-.74-1.45-1.5-2.17-2.25-7.81-8.18-95.26-97.16,3.05-153.42l1.04,1.83s-27.46,61.09,76.67,108.15Z"/>
  <path class="cls-4" d="m458.58,445.79c-16.36-.85-32.78-2.18-49.15-4.04-48.86-5.53-97.29-15.77-142.25-32.24-.03-.01-.04-.02-.04-.02-32.89-12.05-63.94-27.44-91.94-46.78l.31-.45c183.27-59.61,83.02-238.04,83.02-238.04,16.34-2.91,32.56-4.91,48.68-5.98h0c-.42,6.44,32.5,103.8,13.5,151.37t-.01.02c-.4.48-.79.96-1.17,1.43-.6.74-1.19,1.48-1.76,2.2-.04.04-.07.08-.09.11-.28.36-.56.72-.83,1.07-.3.39-.6.77-.89,1.16-.6.77-1.16,1.52-1.7,2.25-.27.36-.54.73-.8,1.09-.27.36-.53.71-.78,1.06-1.28,1.76-2.43,3.41-3.45,4.93-.2.29-.39.57-.57.85-.26.39-.51.76-.76,1.13-.04.06-.08.12-.11.18-.14.21-.28.43-.41.63-.14.2-.26.4-.39.6-.34.52-.65,1.02-.95,1.49-.1.16-.2.32-.29.47-.1.15-.19.3-.28.45-.18.29-.35.57-.52.84-.28.46-.53.88-.76,1.26-.2.34-.37.65-.53.92-.16.26-.29.49-.4.68-.14.25-.26.46-.34.62h0c-.03.06-.05.1-.08.14-.03.06-.06.1-.08.14l-.03.06c2.04-2.47,78.63-94.64,117.93-19.57,31.9,60.94-38.42,108.56-87.96,89.65-2.25-.98-4.03-1.8-5.23-2.36-.13-.06-.24-.11-.35-.16-.33-.16-.6-.29-.82-.39.22.12.43.24.65.35.16.09.32.17.49.25.09.05.19.09.28.14.54.27,1.08.53,1.63.77.52.24,1.03.47,1.56.68.59.25,1.19.49,1.79.72,12.95,5.62,41.42,16.7,64.64,16.53h0s27.4,5.65,30.64,16.38c3.21,10.66,6.77,20.66,30.6,47.41Z"/>
  <path class="cls-5" d="m175.51,362.26l-.31.45c-17.26-11.91-33.36-25.32-48.03-40.36l3.96-2.25c38.74-9.66,61.84-25.31,74.63-43.44,36.59-51.89-11.2-124.08-18.36-134.31,24.05-7.89,47.72-13.96,71.13-18.13,0,0,100.25,178.43-83.02,238.04Z"/>
  <path class="cls-2" d="m129.09,168.51-1.04-1.83l.05.09m.99,1.74s-27.46,61.09,76.67,108.15c36.59-51.89-11.2-124.08-18.36-134.31-10.77,3.53-21.61,7.43-32.53,11.69-10.18,3.97-19.08,8.2-26.82,12.64m47.46,30.25c-6.35,0-11.49-5.14-11.49-11.49s5.14-11.49,11.49-11.49,11.48,5.15,11.48,11.49-5.14,11.49-11.48,11.49Z"/>
  <path class="cls-1" d="m325.94,362.39c.76.36,3.16,1.51,6.76,3.08-2.31-.88-4.56-1.9-6.76-3.08Z"/>
  <path class="cls-2" d="m497.92,151.27s-45.35,53.32-90.03,62.26c-40.62,8.13-69.96,35.25-87.18,56.08,19-47.57-13.92-144.93-13.5-151.36h0c9.77-.64,19.5-.94,29.2-.89,53.66.27,106.56,11.15,160.13,33.34.46.18.92.37,1.38.57Z"/>
  <path class="cls-5" d="m544.78,446.21c-13.78.56-27.77.83-41.88.79h-.02c-14.66-.04-29.44-.43-44.29-1.21h-.01c-23.83-26.75-27.39-36.75-30.6-47.41-3.24-10.73-30.64-16.37-30.64-16.37h0c7.77-.06,14.96-1.37,20.77-4.57,16.44-9.04,85.59-80.89,20.93-127.66-21.49-15.54-41.66-18.77-59.55-15.37-.59.11-1.19.23-1.78.36-.81.18-1.63.37-2.44.57-.99.25-1.97.52-2.94.81-3.35.99-6.6,2.2-9.76,3.58-.67.3-1.35.6-2.01.92-3.36,1.57-6.6,3.35-9.72,5.26-.55.34-1.1.68-1.64,1.02-4.37,2.81-8.48,5.88-12.32,9.06-.54.45-1.06.89-1.59,1.34,0,.01,0,.01-.02.02-.52.45-1.04.9-1.55,1.35h0c-.77.69-1.53,1.38-2.28,2.06,0,0-.01.02-.02.02-.5.47-1,.94-1.49,1.39-.97.93-1.91,1.85-2.84,2.76-.48.48-.94.95-1.4,1.42-.44.45-.89.91-1.33,1.36,0,.01,0,.02,0,.02-1.32,1.38-2.59,2.75-3.8,4.09-.02.03-.04.06-.07.08-1.84,2.06-3.55,4.07-5.12,5.99-.14.16-.27.33-.41.49-.16.2-.33.4-.48.6-.85,1.05-1.65,2.06-2.41,3.04,0,.01-.01.02-.02.03-.29.39-.59.77-.88,1.14-.12.16-.24.33-.36.48-.05.07-.1.14-.15.2-.29.38-.56.75-.83,1.11-.22.3-.43.59-.64.87-.27.37-.53.73-.78,1.08-.05.08-.11.15-.16.22-.15.21-.29.41-.43.6-.5.7-.96,1.37-1.39,1.99-.28.41-.55.8-.8,1.17-.13.19-.25.37-.37.55-.03.04-.06.09-.09.13-.15.22-.29.44-.42.64-.14.21-.27.41-.39.59-.22.34-.42.65-.6.93-.25.4-.46.73-.63.99,0,.01,0,.02-.02.03-.06.11-.11.2-.17.28.08-.16.2-.37.34-.62.11-.19.24-.42.4-.68.16-.27.33-.58.53-.92.23-.38.48-.8.76-1.26.17-.27.34-.55.52-.84.09-.15.18-.3.28-.45.09-.15.19-.31.29-.47.3-.47.61-.97.95-1.49.13-.2.25-.4.39-.6.13-.2.27-.42.41-.63.03-.06.07-.12.11-.18.25-.37.5-.74.76-1.13.18-.28.37-.56.57-.85,1.02-1.52,2.17-3.17,3.45-4.93.25-.35.51-.7.78-1.06.26-.36.53-.73.8-1.09.54-.73,1.1-1.48,1.7-2.25.29-.39.59-.77.89-1.16.27-.35.55-.71.83-1.07.02-.03.05-.07.09-.11.57-.72,1.16-1.46,1.76-2.2.38-.47.77-.95,1.17-1.43t.01-.02c17.22-20.83,46.56-47.95,87.18-56.08,44.68-8.94,90.03-62.26,90.03-62.26,18.07,7.54,36.21,16.37,54.48,26.51,5.52,3.07,10.86,6.16,16.04,9.27,0,0-107.37,33.28-23.66,259.16Z"/>
  <path class="cls-2" d="m721.56,290.99s-23.11,23.13-29.75,45.6c-6.64,22.47-28.6,36.77-28.6,36.77,0,0-85.27,53.1-114.38-42.39-29.11-95.49,24.08-141.2,24.08-141.2,60.71,37.32,98.4,76.7,142.92,98.53,1.9.93,3.81,1.83,5.73,2.69Z"/>
  <path class="cls-4" d="m938.96,386.46c-18.05,66.39-44.24,97.45-101.78,99.28-30.61-22.99-40.74-40-59.26-49.22h0c-.88-4.96-1.5-9.83-1.9-14.61h.01c172.57-48.47,74.66-124.87,74.66-124.87,7.49-1.87,15.28-4.09,23.42-6.66,0,0,10.77-4.49,26.04-5.74,0,0,56.85,35.44,38.81,101.82Z"/>
  <path class="cls-2" d="m776.03,421.91h-.01c-5.61-67.85,34.02-117.53,34.02-117.53,12.51-1.26,25.99-3.65,40.65-7.34,0,0,97.91,76.4-74.66,124.87Z"/>
  <path class="cls-5" d="m776.02,421.91c.4,4.78,1.02,9.65,1.9,14.6-12.68-6.31-29.31-8.98-59.16-7.42h0c-24.11-64.62,13.64-133.65,13.64-133.65,22.37,8.29,47.15,12,77.64,8.94,0,0-39.63,49.68-34.02,117.53Z"/>
  <path class="cls-3" d="m847.04,492.85c-3.51-2.43-6.79-4.8-9.86-7.11,57.54-1.83,83.73-32.89,101.78-99.28,18.04-66.38-38.81-101.82-38.81-101.82,25.45-2.08,63.38,4.85,84.76,56.55,34.22,82.72-60.25,205.27-137.87,151.66Z"/>
  <path class="cls-4" d="m515.11,138.44c-9.42,7.72-18.57,12.26-18.57,12.26-53.57-22.19-106.47-33.07-160.13-33.34,0,0,16.28-17.47,40.82-34.22,125.33-25.97,137.87,55.29,137.87,55.29h.01Z"/>
  <path class="cls-3" d="m515.11,138.44h-.01s-12.54-81.27-137.87-55.3c33.43-22.82,82.2-44.3,125.98-18.38,50.64,29.98,30.75,58.2,11.9,73.68Z"/>
  <path class="cls-4" d="m718.76,429.08h0c-1.95.1-3.97.22-6.05.36-17.83,1.19-40.08,3.74-68.39,7.75-31.05,4.39-64.64,7.61-99.54,9.02-83.71-225.88,23.66-259.16,23.66-259.16,0,0,.01,0,.02.01,1.49.91,2.98,1.8,4.45,2.71,0,0-53.19,45.71-24.08,141.2,29.11,95.49,114.38,42.39,114.38,42.39,0,0,21.96-14.3,28.6-36.77,6.64-22.47,29.75-45.6,29.75-45.6,3.56,1.61,7.17,3.09,10.84,4.45,0,0-37.75,69.03-13.64,133.64Z"/>
  <path class="cls-4" d="m745.43,284.64l.42,2.74c-15.63,2.54-30.02.92-30.02.92-44.52-21.83-82.21-61.21-142.92-98.53-1.47-.91-2.96-1.8-4.45-2.71,1.1.15,44.41,6.21,76.85-8.63,0,0,122.58,5.24,100.12,106.21Z"/>
  <path class="cls-3" d="m783.21,262.04c-5.21,16.25-21.89,22.83-37.36,25.34l-.42-2.74c22.46-100.97-100.12-106.21-100.12-106.21,1.66-.76,3.29-1.57,4.88-2.44,33.19-18.12,98.81-.25,116.17,20.94s27.32,32.43,16.85,65.11Z"/>
  <path class="cls-1" d="m568.46,187.06s-.02-.01-.02-.01"/>
  <path class="cls-1" d="m186.53,141.12s.31.42.87,1.23"/>
  <path class="cls-1" d="m325.94,362.39c.76.36,3.16,1.51,6.76,3.08-2.31-.88-4.56-1.9-6.76-3.08Z"/>
  <path class="cls-3" d="m418.11,377.44c-5.81,3.2-13,4.51-20.77,4.56-23.22.17-51.69-10.91-64.64-16.53,49.54,18.91,119.86-28.71,87.96-89.65-39.3-75.07-115.89,17.1-117.93,19.57l.03-.06s.05-.08.08-.14c.03-.04.05-.08.08-.13h0c.06-.09.11-.18.17-.29.02,0,.02-.02.02-.03.17-.26.38-.59.63-.99.18-.28.38-.59.6-.93.12-.18.25-.38.39-.59.13-.2.27-.42.42-.64.03-.04.06-.08.09-.13.12-.17.24-.36.37-.55.25-.37.52-.76.8-1.17.43-.62.89-1.29,1.39-1.99.14-.19.28-.39.43-.6.05-.07.11-.14.16-.22.25-.35.51-.71.78-1.08.21-.28.42-.57.64-.87.27-.36.54-.73.83-1.11.05-.06.1-.13.15-.2.12-.15.24-.32.36-.48.29-.37.59-.75.88-1.14,0-.01.02-.02.02-.03.76-.98,1.56-1.99,2.41-3.04.15-.2.32-.4.48-.6.14-.16.27-.33.41-.49,1.57-1.92,3.28-3.93,5.12-5.99.03-.02.05-.05.07-.08,1.21-1.34,2.48-2.71,3.8-4.09,0,0,0-.01,0-.02.44-.45.89-.91,1.33-1.36.46-.47.92-.94,1.4-1.42.93-.91,1.87-1.83,2.84-2.76.49-.45.99-.92,1.49-1.39.01,0,.02-.01.02-.02.75-.68,1.51-1.37,2.28-2.05h0c.51-.46,1.03-.91,1.55-1.36.01-.01.02-.01.02-.02.53-.45,1.05-.89,1.59-1.34,3.84-3.18,7.95-6.25,12.32-9.06.54-.34,1.09-.68,1.64-1.02,3.12-1.91,6.36-3.69,9.72-5.26.66-.32,1.34-.62,2.01-.92,3.16-1.38,6.41-2.59,9.76-3.58.97-.29,1.95-.56,2.94-.81.81-.2,1.63-.39,2.44-.57.59-.13,1.19-.25,1.78-.36,17.89-3.4,38.06-.17,59.55,15.37,64.66,46.77-4.49,118.62-20.93,127.66Z"/>
  <path class="cls-4" d="m423.26,457.15c-24.47,90.93-109.59,43.93-109.59,43.93-2.99-6.73-5.46-14.66-7.39-24.06-10.51-51-37.96-66.87-39.1-67.51,44.96,16.47,93.39,26.71,142.25,32.24,5.81,4.62,10.38,9.84,13.83,15.4Z"/>
  <path class="cls-3" d="m384.43,542.38c-33.04-5.02-57.22-10.73-70.76-41.3,0,0,85.12,47,109.59-43.93,23.26,37.41-3.74,90.57-38.83,85.23Z"/>
  <path class="cls-4" d="m719.46,439.11h-.01c-26.78,83.99-140.33,42.26-142.12,41.6-.01,0-.02,0-.02,0-24.92-25.12-72.28-33.64-74.41-33.7,14.11.04,28.1-.23,41.88-.79,34.9-1.41,68.49-4.63,99.54-9.02,28.31-4.01,50.56-6.56,68.39-7.75,2.64,3.23,4.88,6.45,6.75,9.67Z"/>
  <path class="cls-3" d="m693.34,519.4c-24,11.23-87.32,3.57-108.25-29.11-2.2-3.43-4.82-6.62-7.76-9.58,1.79.66,115.34,42.39,142.12-41.59h.01c20.88,35.86-4.09,69.96-26.12,80.28Z"/>
  <path class="cls-1" d="m577.33,480.71s-.02-.01-.02-.01"/>
  <path class="cls-1" d="m302.7,295.44s.01-.02.03-.05"/>
  <path class="cls-1" d="m458.96,446.21c-.13-.14-.25-.28-.37-.42"/>
  <path class="cls-3" d="m186.99,185.44c0,6.35-5.14,11.49-11.48,11.49s-11.49-5.14-11.49-11.49,5.14-11.49,11.49-11.49,11.48,5.15,11.48,11.49Z"/>
  <path class="cls-1" d="m205.98,276.76c-.07-.03-.15-.07-.22-.1"/>
  <path class="cls-7" d="m128.47,167.45c-.72.32-1.34,1.12-1.46,1.9-.05.35-.07.64.08.98.12.28.33.59.61.72.59.27,1.2.46,1.86.41s1.27-.21,1.82-.57l-2.26-1.3v.07c.01-.13.03-.27.05-.4l.1-.23c.16-.2.2-.25.12-.17-.05.04-.09.09-.14.13-.09.09-.17.18-.25.28-.31.39-.53.73-.71,1.19-.39.97-.2,2.12.72,2.71.52.34,1.2.52,1.8.66.28.06.57.12.85.18.15.03.3.06.45.1.06.01.12.03.18.05.62.17-.53-.02-.65-.77l-.05-.4c0,.09,0,.17-.02.25l.05-.4c-.01.09-.04.18-.06.27-.06.28.15-.29.01-.02-.18.37-.26.75-.15,1.16.1.35.36.73.69.9.68.36,1.68.21,2.05-.54s.62-1.67.2-2.44c-.37-.68-1.07-.87-1.77-1.02-.43-.1-.87-.17-1.3-.28-.21-.05-.41-.11-.61-.18-.06-.02-.11-.04-.17-.07.21.09.25.11.13.05-.13-.08-.09-.04.13.11.23.51.32.65.27.39l.05.4c0-.08,0-.15,0-.23l-.05.4c.02-.11.05-.21.07-.32.07-.26-.17.3-.02.06.04-.07.08-.14.13-.21.15-.24-.24.27,0,0,.11-.13.24-.24.35-.36.34-.38.51-.79.53-1.31.05-1.11-1.32-1.9-2.26-1.3-.07.04-.13.08-.2.12-.24.14.34-.1.07-.03-.15.04-.3.08-.46.11l.4-.05c-.18.02-.36.02-.55,0l.4.05c-.1-.01-.21-.03-.31-.06-.12-.03-.45-.19,0,.02l.69,1.69c.01-.1.06-.19.07-.29-.11.24-.13.3-.05.16.06-.09.05-.08-.03.03-.18.23.05-.02.08-.06-.21.15-.25.19-.12.11.04-.02.09-.05.13-.06.32-.14.6-.57.69-.9.1-.36.05-.84-.15-1.16s-.51-.6-.9-.69c-.42-.1-.77-.02-1.16.15h0Z"/>
  <path class="cls-6" d="m128.38,167.48c-.43.34-.76.74-1.09,1.18-.56.76.02,2.01.9,2.2s1.8-.11,2.26-.94c.24-.43.3-.95.18-1.42-.05-.18-.12-.36-.21-.52-.06-.1-.51-.66-.2-.24l.2.76v-.07c.04-1-.98-1.68-1.9-1.45-.46.12-.78.39-1.03.78-.62.94.19,2.29,1.3,2.26.17,0,.34,0,.51,0,.06,0,.21-.01.26.02-.09-.05-.21-.04-.02,0,.08.02.17.04.25.05.22.07.16,0-.19-.21-.27-.27-.36-.34-.27-.2.03.13.14.29.2.41.15.31.3.62.45.94.11.22.23.43.4.62.11.11.25.22.38.31.09.06.29.21,0-.03.14.12,0,0-.05-.08.03.07.1.13.14.19.09.13.19.26.28.39s.17.26.25.4c.02.03.12.18.11.21.02-.03-.09-.26-.02-.03.04.11.15.35.12.47l-.02-.15c0,.06.01.12.01.19,0,.08,0,.17.01.25.02.45.06.89.12,1.34.05.33.4.75.69.9.3.16.62.22.96.18.79-.11,1.22-.72,1.3-1.47-.02.19-.03.18,0,0,.01-.08.03-.15.05-.23.05-.19.11-.37.18-.55.07-.2-.12.22-.01.04.05-.08.09-.17.13-.26.04-.07.08-.13.12-.2.03-.05.26-.36.03-.07l-2.51-.66c.08.34.16.68.23,1.03.03.17.06.35.09.52.01.09.03.17.04.26-.02-.18-.02-.18,0,0l2.26-1.3c-.14-.08-.12-.06.07.06.13.17.14.19.05.06-.06-.09-.12-.18-.18-.27-.21-.3-.45-.59-.71-.85-.41-.41-.86-.79-1.29-1.18-.31-.28-.61-.57-1.02-.68-.7-.19-1.45.13-1.83.74s-.36,1.47-.39,2.18l2.8-.76c.05.11.07.2.04.03.02.11.03.24,0,.05-.02-.2-.04-.39-.06-.59l-.11-1.12c-.05-.54-.25-1.01-.74-1.3-.45-.26-1.07-.29-1.51,0-1.12.71-1.41,1.9-1.38,3.16.02.75.56,1.37,1.3,1.47.69.09,1.5-.34,1.65-1.07.19-.91.31-1.83.38-2.75.04-.59-.41-1.16-.92-1.37-.58-.24-1.17-.09-1.64.31-.81.7-1.05,1.79-1.11,2.81h3c0-.46,0-.92,0-1.38,0-.38-.06-.74-.25-1.08-.28-.49-.82-.79-1.38-.78-1.73.03-1.87,2.13-1.68,3.39.11.73.98,1.16,1.65,1.07.76-.1,1.26-.72,1.3-1.47.02-.36.05-.71.09-1.06.08-.74-.64-1.38-1.3-1.47s-1.5.34-1.65,1.07c-.12.59-.14,1.2.08,1.76s.61.99,1.25,1.07c.56.07,1.23-.18,1.49-.72.3-.62.36-1.16.25-1.83-.18-1.12-1.8-1.44-2.51-.66-.37.4-.59.86-.67,1.39l2.95.4c-.02-.32,0-.69-.09-1-.15-.54-.56-.98-1.12-1.13-1.03-.27-1.93.56-2.07,1.54l2.95.4c0-.25.02-.51.03-.76.04-1.26-1.7-2.03-2.56-1.06-.38.43-.62.92-.6,1.5.02,1.12,1.26,1.89,2.26,1.3s1.03-1.91.74-2.9c-.26-.9-.81-1.57-1.54-2.14-.27-.21-.84-.25-1.16-.15-.38.12-.68.35-.9.69-.46.71-.3,1.55.09,2.25.36.66,1.21.89,1.87.61s1.05-1.04.87-1.77v-.04c-.13-.47-.57-.95-1.06-1.05-.53-.1-1-.05-1.43.28s-.64.8-.67,1.33c-.02.28.03.56.1.82.05.19.18.47.16.66l-.02-.15c0,.06.01.13.02.19,0,.11.01.21.02.32,0,.26,0,.51-.02.77-.02.21-.03.43-.07.64.07-.36-.01.07-.02.11-.02.13-.04.25-.06.38l2.95.4c-.02-.49-.18-.97-.55-1.3-.41-.36-.92-.54-1.46-.39-.45.12-.98.55-1.05,1.05s-.14,1.04-.21,1.56c-.06.42-.07.78.15,1.16.18.31.54.61.9.69.71.16,1.73-.22,1.85-1.05.07-.52.14-1.04.21-1.56l-2.51.66-.12-.16-.2-.76v.09c.03.75.55,1.37,1.3,1.47.67.09,1.53-.34,1.65-1.07.13-.83.27-1.67.27-2.5,0-.45-.05-.9-.12-1.35-.03-.17-.06-.33-.11-.5-.02-.08-.04-.18-.08-.26-.02-.08-.02-.06,0,.06.04.21.01.41-.1.62l-.9.69.06-.03h-.8.06c-.35-.34-.7-.69-1.05-1.04v.04c.92-.39,1.84-.77,2.75-1.16-.07-.14-.07-.12.02.08.04.24,0,.47-.11.7l-2.05.54c-.32-.25-.07-.03,0,.03.19.18-.11-.18-.02-.04.04.07.09.14.13.21.02.04.05.09.07.13.05.1.03.06-.06-.13.01,0,.07.22.07.24.06.25-.02.06,0-.06-.02.07,0,.23,0,.3v.1c0-.15.04-.29.12-.42l.54-.54-.06.04,2.26,1.3c-.02.23-.11.44-.28.62l-2.56-1.06c0,.25-.02.51-.03.76-.03.75.59,1.38,1.3,1.47.66.09,1.54-.34,1.65-1.07.07-.51.16.09-.46.4l-1.16.15.05.02-1.05-1.05c-.04-.18-.04-.3-.02-.04l.02.3c.05.75.54,1.37,1.3,1.47.67.09,1.53-.34,1.65-1.07.02-.1.04-.2.06-.3.05-.25-.1.17-.16.23l-2.51-.66c-.03-.19-.04-.3.05-.48l2.74.36c-.03-.07-.05-.14-.07-.21-.03-.14-.03-.14,0-.02-.03.33.12-.52,0,.05l-2.95-.4c-.04.35-.07.71-.09,1.06l2.95-.4c.02.13.01.2.01.03,0-.1,0-.21,0-.31,0-.2-.06.23,0,.03.15-.49-.12.22-.48.44l-.76.2h.06c-.43-.24-.86-.49-1.3-.74l.05.07-.2-.76c.07.54.03,1.12.02,1.66,0,.78.7,1.54,1.5,1.5.85-.04,1.45-.66,1.5-1.5,0-.07,0-.14.01-.2.02-.17.01-.14-.02.09-.04-.04.08-.35.09-.4.05-.15.04-.13-.04.08.03-.06.06-.12.09-.18.09-.13.07-.11-.06.07.05-.05.09-.09.15-.14l-2.56-1.06c-.01.18-.03.35-.04.53,0,.09-.02.18-.03.26,0,.04-.05.4-.02.19.03-.18-.02.1-.02.13-.01.09-.03.17-.04.26-.03.2-.07.39-.11.58l2.95.4c0-.17,0-.35,0-.52v-.13c-.02.18-.02.19.01.02.04-.13.04-.13,0-.02-.05.11-.05.11,0-.01.09-.14.07-.12-.05.05.12-.11.1-.1-.06.04l-2.26-1.3c.1,1.05.09,2.17.53,3.14.26.57,1.11.88,1.69.69.65-.21,1.08-.76,1.1-1.45,0-.22.02-.44.04-.66,0-.09.02-.18.02-.26.03-.33-.04.19-.08.26l-.54.54.06-.04-.76.2h.07c-.25-.07-.5-.14-.76-.21-.09-.04-.3-.27-.1-.08.07.06.13.12.2.18l.4.36c.27.24.54.47.79.73.11.11.22.24.33.35.15.15-.12-.19-.01-.02.04.06.08.12.12.18.27.4.56.77.99,1,.47.26,1.04.27,1.51,0,.41-.24.81-.79.74-1.3-.11-.88-.25-1.74-.46-2.6-.12-.5-.55-.91-1.05-1.05-.47-.13-1.14-.02-1.46.39-.79,1.03-1.24,2.1-1.38,3.39l2.95-.4c.03.21.02.12,0-.04,0-.1-.01-.21-.02-.31,0-.19-.01-.38-.03-.56-.04-.48-.11-.95-.3-1.4s-.39-.84-.66-1.22c-.24-.35-.49-.74-.81-1.02-.11-.1-.25-.22-.38-.29-.16-.09-.14-.06.06.1.16.18.2.21.14.09-.03-.17-.18-.37-.25-.53-.16-.34-.3-.69-.5-1.01-.63-1-2-1.11-3.08-1.08l1.3,2.26.05-.07-.9.69.09-.02-1.9-1.45c-.01.34.15.99.49,1.21l.07.06-.25-.44c-.12-.5.02-.85.42-1.05.22-.27.5-.35.84-.24l.9,2.2c-.11.15-.11.13,0,0,.06-.07.12-.14.19-.2.13-.13.27-.25.42-.37.62-.49.55-1.62,0-2.12-.66-.6-1.46-.52-2.12,0h0Z"/>
  <path class="cls-6" d="m129.12,174.31l-.04-.04c-.14-.15-.3-.25-.48-.31-.18-.09-.37-.14-.58-.13-.21,0-.4.04-.58.13-.19.06-.35.16-.48.31l-.23.3c-.14.23-.2.49-.2.76l.05.4c.07.25.2.47.39.66l.04.04c.14.15.3.25.48.31.18.09.37.14.58.13.21,0,.4-.04.58-.13.19-.06.35-.16.48-.31l.23-.3c.14-.23.2-.49.2-.76l-.05-.4c-.07-.25-.2-.47-.39-.66h0Z"/>
  <path class="cls-6" d="m126.68,174.42c-.15.23-.24.47-.29.74-.04.18-.06.36-.06.54-.01.16,0,.19.01.1-.02.2-.22.84-.31,1.2-.22.94-.37,1.89-.48,2.85-.21,1.87-.16,3.77-.18,5.64-.01.81.7,1.5,1.5,1.5s1.49-.69,1.5-1.5c.02-1.75-.03-3.52.14-5.26.07-.74.2-1.48.37-2.25.1-.43.23-.85.33-1.27.05-.23.1-.49.11-.72,0-.1,0-.19,0-.29-.02.08-.04.15-.06.23.45-.67.13-1.66-.54-2.05-.74-.43-1.6-.14-2.05.54h0Z"/>
  <path class="cls-6" d="m127.38,182.28c-.43-.07-.79-.08-1.19.15-.24.14-.45.34-.59.59-.19.33-.22.67-.24,1.03-.02.34-.03.68-.03,1.02,0,.67.03,1.34.09,2,.04.41.14.76.44,1.06.26.26.69.46,1.06.44s.79-.14,1.06-.44c.25-.28.48-.67.44-1.06-.1-1.07-.12-2.15-.05-3.22l-.05.4s0-.05.02-.08l-.15.36.02-.03-.54.54.03-.02-1.16.15h.03c.41.07.78.07,1.16-.15.31-.18.61-.54.69-.9.09-.38.07-.81-.15-1.16-.2-.31-.52-.63-.9-.69h0Z"/>
  <path class="cls-6" d="m125.31,185.88c-.23,1.74-.19,3.48-.16,5.23s.14,3.67.61,5.44c.21.78,1.07,1.26,1.85,1.05s1.26-1.06,1.05-1.85c-.43-1.58-.48-3.17-.51-4.84s-.06-3.36.16-5.04c.11-.8-.77-1.5-1.5-1.5-.9,0-1.39.69-1.5,1.5h0Z"/>
  <path class="cls-6" d="m126.09,197.79c.2,1.2.6,2.35.9,3.53s.59,2.46.83,3.71c.15.8,1.11,1.25,1.85,1.05.86-.24,1.16-1.04,1.05-1.85-.13-.92-.46-1.79-.73-2.68s-.36-1.86-.66-2.76c-.21-.63-.76-1.1-1.45-1.1-.6,0-1.36.46-1.45,1.1-.07.53-.08,1,.1,1.51.12.33.26.64.36.97.2.6.38,1.35.45,1.9l2.95-.4c-.04-.12-.08-.24-.12-.36l-2.89.8c.31.77.41,1.66.57,2.47.18.89.34,1.78.47,2.68.12.8,1.13,1.24,1.85,1.05.86-.24,1.16-1.04,1.05-1.85-.13-.9-.29-1.79-.47-2.68-.16-.81-.26-1.7-.57-2.47s-1-1.28-1.85-1.05c-.75.21-1.3,1.07-1.05,1.85.04.12.08.24.12.36.23.71.89,1.19,1.65,1.07.66-.1,1.39-.72,1.3-1.47s-.2-1.45-.39-2.16c-.08-.3-.18-.6-.29-.9-.05-.15-.11-.29-.17-.44-.07-.19-.1-.6-.17-.09h-2.89c.3.9.39,1.85.66,2.76s.6,1.75.73,2.68l2.89-.8c-.24-1.24-.51-2.48-.83-3.71s-.7-2.33-.9-3.53c-.13-.8-1.12-1.25-1.85-1.05-.85.23-1.18,1.04-1.05,1.85h0Z"/>
  <path class="cls-6" d="m128.75,209.03c.29,1.43.85,2.79,1.36,4.16s1.08,2.82,1.69,4.2c1.18,2.67,2.64,5.18,4.55,7.4.53.61,1.58.54,2.12,0,.61-.61.53-1.51,0-2.12-1.74-2.01-3.01-4.37-4.08-6.79-.52-1.18-.98-2.39-1.43-3.6-.49-1.32-1.03-2.65-1.32-4.04-.16-.79-1.1-1.25-1.85-1.05-.83.23-1.21,1.05-1.05,1.85h0Z"/>
  <path class="cls-6" d="m137.3,225.99c1.53,1.84,3.01,3.71,4.44,5.62.69.93,1.4,1.81,2.23,2.62s1.64,1.54,2.37,2.4c.52.62,1.58.54,2.12,0,.61-.61.52-1.5,0-2.12-.7-.84-1.52-1.57-2.3-2.34s-1.43-1.55-2.07-2.41c-1.51-2.01-3.06-3.98-4.67-5.91-.52-.62-1.59-.54-2.12,0-.62.62-.52,1.5,0,2.12h0Z"/>
  <path class="cls-6" d="m143.8,232.98c-.43,1.46.85,2.48,1.81,3.33.36.32.72.63,1.08.94.42.36.87.74,1.38.98.38.17.74.27,1.16.15.35-.1.73-.36.9-.69.18-.35.28-.77.15-1.16-.11-.35-.34-.74-.69-.9-.25-.11-.47-.26-.69-.42l.3.23c-.48-.37-.93-.79-1.39-1.19s-.95-.79-1.33-1.26l.23.3c-.06-.08-.11-.16-.15-.25l.15.36c-.02-.05-.04-.1-.05-.16l.05.4c0-.06,0-.1,0-.16l-.05.4s.01-.07.03-.11c.11-.37.04-.82-.15-1.16-.18-.31-.54-.61-.9-.69-.8-.18-1.61.24-1.85,1.05h0Z"/>
  <path class="cls-6" d="m146.03,236.71l2.9,3.63c.91,1.14,1.79,2.34,2.8,3.39,1.88,1.95,4.23,3.34,6.31,5.05.62.51,1.51.61,2.12,0,.53-.53.63-1.6,0-2.12-2.08-1.71-4.43-3.1-6.31-5.05-.99-1.03-1.84-2.19-2.73-3.3l-2.97-3.72c-.51-.63-1.59-.53-2.12,0-.63.63-.51,1.49,0,2.12h0Z"/>
  <path class="cls-6" d="m158.73,248.98c3.92,4.7,9.18,7.87,14.41,10.93,1.67.98,3.18-1.62,1.51-2.59-5.03-2.94-10.03-5.93-13.8-10.46-.52-.62-1.58-.54-2.12,0-.62.62-.52,1.5,0,2.12h0Z"/>
  <path class="cls-6" d="m173.8,260.53c1.1.31,2.11.94,3.12,1.46,1.09.56,2.17,1.14,3.24,1.76,2.1,1.22,4.08,2.64,6.23,3.77l1.51-2.59c-1.73-.86-3.46-1.72-5.2-2.58-.74-.37-1.45-.74-2.09-1.27-.75-.62-1.51-1.25-2.26-1.88-.62-.52-1.51-.61-2.12,0-.53.53-.63,1.6,0,2.12,1.51,1.26,2.95,2.62,4.72,3.5s3.62,1.8,5.43,2.69c.73.36,1.62.19,2.05-.54.39-.67.18-1.68-.54-2.05-2.23-1.16-4.26-2.64-6.44-3.89-1.06-.61-2.15-1.18-3.24-1.75-1.17-.6-2.34-1.3-3.61-1.65-1.86-.52-2.66,2.37-.8,2.89h0Z"/>
  <path class="cls-6" d="m186.79,267.63c.63.45,1.28.86,1.95,1.25l1.16-2.74c-.23-.08-.47-.16-.7-.26-.13-.05-.25-.11-.37-.17-.3-.15-.28-.29-.05.14v1.51l.03-.08-1.69.69c1.08.45,2.12.97,3.14,1.54l1.16-2.74c-.4-.06-.77-.16-1.15-.3-.69-.27-1.52.24-1.77.87s-.08,1.56.61,1.87c1.51.68,2.93,1.63,4.37,2.44.74.42,1.46.87,2.23,1.23.72.34,1.48.58,2.17.98,1.66.99,3.18-1.61,1.51-2.59-.69-.41-1.45-.65-2.17-.98-.77-.36-1.49-.81-2.23-1.23-1.44-.81-2.86-1.76-4.37-2.44l-1.16,2.74c.38.15.75.25,1.15.3.74.11,1.47-.12,1.77-.87.27-.67.05-1.51-.61-1.87-1.25-.69-2.54-1.29-3.86-1.84-.55-.23-1.45.14-1.69.69-.87,2,1.4,2.75,2.88,3.26,1.63.55,2.61-1.91,1.16-2.74-.67-.38-1.32-.8-1.95-1.25s-1.67-.12-2.05.54c-.44.75-.12,1.58.54,2.05h0Z"/>
  <path class="cls-6" d="m199.07,274.38c.07.03.15.06.22.09l-.36-.15c1.58.67,2.88,1.81,4.4,2.58.88.45,1.91.07,2.2-.9.07-.23.11-.49.1-.73-.03-.78-.67-1.54-1.5-1.5-.79.04-1.53.66-1.5,1.5,0,.06,0,.11,0,.17l.05-.4c0,.06-.02.11-.04.17l2.2-.9c-.81-.41-1.56-.93-2.32-1.42-.85-.55-1.72-1.03-2.66-1.4-.34-.13-.85-.03-1.16.15s-.61.54-.69.9c-.09.38-.07.81.15,1.16s.51.54.9.69h0Z"/>
  <path class="cls-6" d="m124.74,184.92c-.18,1.66.2,3.34.63,4.93.21.78.44,1.55.62,2.34.08.36.16.73.21,1.1-.03-.23.03.34.03.39.01.21.02.42.02.64,0,.78.69,1.54,1.5,1.5s1.5-.66,1.5-1.5c0-1.69-.45-3.33-.89-4.95s-.79-2.82-.61-4.45c.09-.78-.75-1.53-1.5-1.5-.89.04-1.41.66-1.5,1.5h0Z"/>
  <path class="cls-6" d="m126.28,199.74c.79,4.29,2.49,8.41,4.93,12.02.45.67,1.32.97,2.05.54.66-.39.99-1.38.54-2.05-2.32-3.42-3.88-7.24-4.63-11.3-.15-.8-1.11-1.25-1.85-1.05-.84.23-1.2,1.05-1.05,1.85h0Z"/>
  <path class="cls-6" d="m126.31,179.18c-.95.64-1.67,1.63-1.9,2.76s-.1,2.36.56,3.34c.22.33.51.58.9.69.36.1.84.05,1.16-.15.65-.42,1.01-1.36.54-2.05-.1-.15-.18-.3-.25-.46l.15.36c-.09-.23-.15-.46-.19-.7l.05.4c-.04-.28-.03-.56,0-.84l-.05.4c.04-.28.12-.55.22-.81l-.15.36c.1-.23.22-.44.37-.63l-.23.3c.14-.18.3-.34.48-.48l-.3.23c.06-.04.11-.08.17-.12.33-.22.58-.51.69-.9.1-.36.05-.84-.15-1.16-.42-.65-1.35-1-2.05-.54h0Z"/>
  <path class="cls-6" d="m321.38,266.66c1.93,0,1.93-3,0-3s-1.93,3,0,3h0Z"/>
  <path class="cls-6" d="m321.09,267.21c1.93,0,1.93-3,0-3s-1.93,3,0,3h0Z"/>
  <path class="cls-6" d="m320.96,267.6c1.93,0,1.93-3,0-3s-1.93,3,0,3h0Z"/>
  <path class="cls-6" d="m320.4,268.15c1.93,0,1.93-3,0-3s-1.93,3,0,3h0Z"/>
  <path class="cls-6" d="m321.09,267.26c1.93,0,1.93-3,0-3s-1.93,3,0,3h0Z"/>
  <path class="cls-6" d="m321.09,267.43c1.93,0,1.93-3,0-3s-1.93,3,0,3h0Z"/>
  <path class="cls-6" d="m319.94,268.91c1.93,0,1.93-3,0-3s-1.93,3,0,3h0Z"/>
  <path class="cls-6" d="m319.51,269.34c1.93,0,1.93-3,0-3s-1.93,3,0,3h0Z"/>
  <path class="cls-6" d="m323.56,264.68c1.19-3.79,2.02-7.7,2.66-11.62.13-.8-.21-1.61-1.05-1.85-.72-.2-1.71.24-1.85,1.05-.64,3.92-1.47,7.83-2.66,11.62-.24.77.29,1.64,1.05,1.85.81.22,1.6-.27,1.85-1.05h0Z"/>
  <path class="cls-6" d="m326.68,251.98c.44-4.94,1.04-9.9,1.06-14.86,0-1.93-2.99-1.93-3,0-.02,4.96-.62,9.92-1.06,14.86-.07.81.74,1.5,1.5,1.5.87,0,1.43-.69,1.5-1.5h0Z"/>
  <path class="cls-6" d="m328.01,237.31c-.2-7.72-.2-15.48-.79-23.18-.15-1.91-3.15-1.93-3,0,.59,7.7.59,15.46.79,23.18.05,1.93,3.05,1.93,3,0h0Z"/>
  <path class="cls-6" d="m327.56,214.28l-2.93-23.56c-.1-.81-.62-1.49-1.5-1.5-.73,0-1.6.7-1.5,1.5l2.93,23.56c.1.81.62,1.49,1.5,1.5.73,0,1.6-.7,1.5-1.5h0Z"/>
  <path class="cls-6" d="m324.41,189.52c-1.06-3.38-1.62-6.78-2.09-10.28s-1.22-7.02-1.97-10.5c-.41-1.89-3.3-1.09-2.89.8.75,3.48,1.52,6.96,1.97,10.5s1.03,6.91,2.1,10.28c.58,1.83,3.48,1.05,2.89-.8h0Z"/>
  <path class="cls-6" d="m320.43,168.16c-.16-1.62-.32-3.26-.7-4.85s-1.06-3.12-1.6-4.67c-1.16-3.29-2.11-6.65-2.89-10.06-.43-1.88-3.32-1.09-2.89.8.75,3.28,1.66,6.53,2.77,9.71.5,1.45,1.13,2.87,1.55,4.34s.61,3.13.77,4.73c.08.81.63,1.5,1.5,1.5.75,0,1.58-.69,1.5-1.5h0Z"/>
  <path class="cls-6" d="m315.66,147.45c-.89-1.62-1.19-3.32-1.62-5.1-.46-1.87-1.14-3.67-1.82-5.46-.29-.76-1.01-1.28-1.85-1.05-.73.2-1.34,1.08-1.05,1.85.71,1.86,1.41,3.72,1.87,5.66.22.94.37,1.9.67,2.82s.72,1.9,1.21,2.79c.39.71,1.37.94,2.05.54s.93-1.34.54-2.05h0Z"/>
  <path class="cls-6" d="m312.99,135.78c-1.27-4.19-2.24-8.47-2.89-12.8l-2.89.8c.33,1.23.65,2.45.98,3.68.5,1.86,3.39,1.07,2.89-.8-.33-1.23-.65-2.45-.98-3.68-.21-.78-1.07-1.26-1.85-1.05-.86.24-1.17,1.04-1.05,1.85.65,4.33,1.61,8.61,2.89,12.8.56,1.84,3.46,1.06,2.89-.8h0Z"/>
  <path class="cls-6" d="m312.11,136.52c-.58-2.84-.94-5.71-1.37-8.57-.21-1.4-.44-2.8-.73-4.19s-.51-2.9-1.18-4.13c-.93-1.69-3.52-.18-2.59,1.51.29.53.39,1.29.54,1.87s.28,1.23.41,1.85c.28,1.39.5,2.79.71,4.2.41,2.76.77,5.53,1.33,8.26.39,1.89,3.28,1.09,2.89-.8h0Z"/>
  <path class="cls-6" d="m307.43,121.84c1.93,0,1.93-3,0-3s-1.93,3,0,3h0Z"/>
  <path class="cls-6" d="m307.4,121.84c1.93,0,1.93-3,0-3s-1.93,3,0,3h0Z"/>
  <path class="cls-6" d="m307.17,121.76c1.93,0,1.93-3,0-3s-1.93,3,0,3h0Z"/>
  <path class="cls-6" d="m307.4,121.76c1.93,0,1.93-3,0-3s-1.93,3,0,3h0Z"/>
  <path class="cls-6" d="m851.89,300.34c1.93,0,1.93-3,0-3s-1.93,3,0,3h0Z"/>
  <path class="cls-6" d="m851.45,300.66c1.93,0,1.93-3,0-3s-1.93,3,0,3h0Z"/>
  <path class="cls-6" d="m851.45,300.47c1.93,0,1.93-3,0-3s-1.93,3,0,3h0Z"/>
  <path class="cls-6" d="m852.21,300.88c4.56,5.6,10.18,10.15,14.23,16.18s7.75,12.41,8.9,19.53c.31,1.9,3.2,1.09,2.89-.8-1.19-7.34-5.11-14.15-9.21-20.24-2.09-3.11-4.47-5.96-7.07-8.65s-5.27-5.25-7.63-8.14c-1.22-1.5-3.33.64-2.12,2.12h0Z"/>
  <path class="cls-6" d="m876.09,337.69c.99,2.71,1.25,5.52,1.35,8.38s.1,5.74-.68,8.52-2.01,5.37-3.23,7.95c-1.29,2.73-2.68,5.4-4.17,8.02-.96,1.68,1.64,3.19,2.59,1.51,1.57-2.76,3.03-5.58,4.37-8.46s2.67-5.68,3.45-8.68.77-5.9.67-8.86-.38-6.24-1.46-9.18c-.66-1.8-3.56-1.02-2.89.8h0Z"/>
  <path class="cls-6" d="m869.83,369.83c-1.05.09-1.81.66-2.36,1.54-.32.51-.56,1.07-.79,1.62s-.47,1.12-.75,1.66c-.13.26-.28.51-.44.75-.05.07-.1.14-.15.21-.15.21.17-.2.05-.06-.11.12-.21.24-.32.36-.55.56-.6,1.57,0,2.12s1.53.6,2.12,0c.88-.89,1.42-1.98,1.91-3.11.22-.52.44-1.04.7-1.54.06-.12.12-.24.19-.35.03-.06.07-.12.11-.18.13-.21.02,0-.06.06.05-.04.09-.11.14-.16.12-.12.17-.06-.09.05.04-.02.1-.05.14-.08-.23.09-.29.11-.18.08.12-.03.05-.02-.2.02.78-.06,1.54-.64,1.5-1.5-.03-.76-.66-1.57-1.5-1.5h0Z"/>
  <path class="cls-6" d="m777.98,422.77c1.93,0,1.93-3,0-3s-1.93,3,0,3h0Z"/>
  <path class="cls-6" d="m777.98,423.4c1.93,0,1.93-3,0-3s-1.93,3,0,3h0Z"/>
  <path class="cls-6" d="m780.61,422.43c.25-.24.51-.47.78-.69l-.3.23c.48-.37.99-.69,1.54-.95.17-.09.32-.22.42-.39.13-.14.22-.31.27-.51.06-.2.07-.4.03-.6,0-.2-.07-.39-.18-.56-.21-.32-.51-.6-.9-.69l-.4-.05c-.27,0-.52.07-.76.2-.97.47-1.86,1.12-2.62,1.87-.27.27-.44.68-.44,1.06s.16.81.44,1.06.66.46,1.06.44.77-.15,1.06-.44h0Z"/>
  <path class="cls-6" d="m782.14,421.1l2.08-.47c.31-.07.64-.12.95-.22.64-.22,1.23-.66,1.39-1.36.09-.39.05-.81-.15-1.16-.18-.31-.54-.61-.9-.69-.38-.09-.81-.07-1.16.15-.32.21-.6.51-.69.9,0,.03-.01.05-.02.08l.15-.36s-.02.05-.04.07l.23-.3s-.04.04-.06.06l.3-.23s-.09.06-.14.08l.36-.15c-.21.09-.45.12-.67.17l-.81.18-1.63.37c-.77.17-1.29,1.1-1.05,1.85.26.8,1.02,1.23,1.85,1.05h0Z"/>
  <path class="cls-6" d="m785.03,420.66c4.36-1,8.66-2.26,12.88-3.76.76-.27,1.27-1.02,1.05-1.85-.2-.74-1.08-1.32-1.85-1.05-4.22,1.5-8.52,2.76-12.88,3.76-.79.18-1.26,1.09-1.05,1.85.22.81,1.05,1.23,1.85,1.05h0Z"/>
  <path class="cls-6" d="m798.66,416.51c7.39-2.01,14.44-5.02,21.47-8.02.75-.32.9-1.41.54-2.05-.44-.78-1.31-.85-2.05-.54-6.79,2.9-13.61,5.78-20.76,7.72-1.86.51-1.07,3.4.8,2.89h0Z"/>
  <path class="cls-6" d="m820.31,408.36c1.61-1.12,3.39-1.68,5.2-2.38,2.08-.8,3.98-1.85,5.86-3.03.69-.43.95-1.34.54-2.05s-1.36-.97-2.05-.54c-1.78,1.1-3.56,2.13-5.5,2.86s-3.88,1.37-5.57,2.55c-.66.46-.97,1.31-.54,2.05.38.66,1.38,1,2.05.54h0Z"/>
  <path class="cls-6" d="m831.17,403.08c6.6-2.2,12.32-6.3,17.88-10.38,5.84-4.29,11.47-8.86,16.87-13.7,1.44-1.29-.69-3.41-2.12-2.12-5.21,4.66-10.62,9.09-16.26,13.23-5.32,3.91-10.83,7.97-17.16,10.08-1.82.61-1.04,3.51.8,2.89h0Z"/>
  <path class="cls-6" d="m868.74,370.08c-1.07,1.25-2.02,2.59-2.81,4.03-.31.56-.26,1.36.23,1.82.19.18.41.31.66.39.33.11.87.05,1.16-.15.18-.13.37-.26.55-.39.33-.23.58-.5.69-.9.1-.36.05-.84-.15-1.16s-.51-.6-.9-.69-.83-.08-1.16.15c-.18.13-.37.26-.55.39l2.05,2.05c.55-1.01,1.18-1.98,1.89-2.89l-.23.3c.22-.29.45-.57.69-.84.26-.31.44-.64.44-1.06,0-.37-.16-.81-.44-1.06s-.66-.46-1.06-.44-.8.14-1.06.44h0Z"/>
  <path class="cls-6" d="m870.21,370.55c-.39,0-.67.1-1.02.26-.2.1-.38.25-.55.39-.2.16-.36.36-.54.54-.39.41-.78.83-1.17,1.24-.27.29-.44.66-.44,1.06,0,.37.16.81.44,1.06s.66.46,1.06.44.79-.15,1.06-.44c.3-.32.6-.64.9-.95.27-.29.53-.62.85-.86l-.3.23c.07-.05.13-.09.21-.12l-.36.15c.05-.02.11-.04.16-.05l-.4.05s.07,0,.1,0c.39,0,.78-.16,1.06-.44.26-.26.46-.69.44-1.06s-.14-.79-.44-1.06-.66-.45-1.06-.44h0Z"/>
  <path class="cls-6" d="m720.15,294.28c1.93,0,1.93-3,0-3s-1.93,3,0,3h0Z"/>
  <path class="cls-6" d="m720.57,294.36c1.93,0,1.93-3,0-3s-1.93,3,0,3h0Z"/>
  <path class="cls-6" d="m717.84,292.74c-4.28,4.57-8.02,9.72-11.68,14.79-3.73,5.17-7.26,10.48-10.6,15.91-1.01,1.65,1.58,3.16,2.59,1.51,3.25-5.3,6.69-10.48,10.32-15.53s7.27-10.07,11.49-14.57c1.32-1.41-.8-3.53-2.12-2.12h0Z"/>
  <path class="cls-6" d="m720.36,294.19c1.93,0,1.93-3,0-3s-1.93,3,0,3h0Z"/>
  <path class="cls-6" d="m695.01,325.04c-3.81,5.75-4.72,12.85-7.38,19.12s-6.45,12.19-11.06,17.28l2.36,1.82c.14-.2.27-.4.41-.6,1.08-1.61-1.52-3.11-2.59-1.51-.14.2-.27.4-.41.6-.95,1.41,1.21,3.08,2.36,1.82,4.69-5.18,8.56-11.08,11.35-17.48,1.39-3.18,2.45-6.45,3.45-9.77s2.13-6.76,4.11-9.75c1.07-1.61-1.53-3.12-2.59-1.51h0Z"/>
  <path class="cls-6" d="m678.8,355.26c-.7,1.54-1.35,3.12-2.14,4.61-.36.68-.77,1.33-1.22,1.95-.06.08-.12.16-.18.24.08-.11.07-.09-.04.05-.13.15-.25.3-.38.45-.26.3-.53.58-.81.86-.56.56-.6,1.57,0,2.12s1.53.59,2.12,0c1.18-1.18,2.22-2.54,3.02-4.02s1.49-3.16,2.22-4.75c.32-.71.23-1.65-.54-2.05-.66-.35-1.71-.22-2.05.54h0Z"/>
  <path class="cls-6" d="m674.73,361.78c-3.95,5.96-10.69,10.05-16.86,13.37-3.62,1.95-7.73,2.88-11.6,4.19-4.07,1.38-8.09,2.86-12.08,4.45-1.77.71-1,3.61.8,2.89,4.21-1.68,8.47-3.24,12.77-4.68,4.06-1.36,8.26-2.39,12.03-4.48,6.53-3.61,13.35-7.9,17.54-14.23,1.07-1.61-1.53-3.12-2.59-1.51h0Z"/>
  <path class="cls-6" d="m632.08,384.39l-4.76.9c-.35.07-.72.39-.9.69-.19.32-.27.8-.15,1.16.27.83,1.02,1.2,1.85,1.05l4.76-.9c.35-.07.72-.39.9-.69.19-.32.27-.8.15-1.16-.27-.83-1.02-1.2-1.85-1.05h0Z"/>
  <path class="cls-6" d="m626.84,385.56c-1.37.68-2.97.82-4.56.92-1.8.11-3.62.18-5.38.63-.78.2-1.26,1.07-1.05,1.85s1.06,1.25,1.85,1.05c1.67-.43,3.31-.43,5.11-.56,1.93-.14,3.79-.43,5.54-1.29.73-.36.93-1.39.54-2.05-.43-.74-1.32-.9-2.05-.54h0Z"/>
  <path class="cls-6" d="m617.25,386.9c-5.78.67-11.6.28-17.23-1.22-1.87-.5-2.66,2.4-.8,2.89,5.87,1.56,12,2.03,18.03,1.32.8-.09,1.5-.62,1.5-1.5,0-.74-.69-1.59-1.5-1.5h0Z"/>
  <path class="cls-6" d="m598.54,385.14c-2.97-.55-5.96-1.12-8.68-2.5-2.9-1.48-5.76-3.07-8.63-4.61-1.7-.91-3.22,1.68-1.51,2.59,2.97,1.59,5.92,3.26,8.93,4.76s5.96,2.08,9.09,2.66c.8.15,1.62-.22,1.85-1.05.2-.73-.25-1.7-1.05-1.85h0Z"/>
  <path class="cls-6" d="m581.45,377.95c-1-1.34-2.06-2.64-3.21-3.86-1.07-1.13-2.31-2.1-3.75-2.72-.39-.17-.73-.27-1.16-.15-.35.1-.73.36-.9.69-.34.65-.23,1.72.54,2.05.63.27,1.23.61,1.8,1.01.04.03.28.22.11.08-.16-.13.03.03.06.05.14.11.28.23.41.35.26.24.51.5.76.76.5.53.99,1.08,1.46,1.64.24.29.48.58.72.87.06.08.12.16.18.23.04.06.23.27.02.03.13.15.24.32.36.47.24.32.49.58.9.69.36.1.84.05,1.16-.15.62-.4,1.04-1.38.54-2.05h0Z"/>
  <path class="cls-6" d="m577.37,374.73h-.07c.13,0,.27-.02.4-.04-.1.01-.19.01-.29,0l.4.05c-.15-.02-.28-.06-.42-.12l.36.15c-.26-.12-.49-.27-.71-.45l.3.23c-.99-.77-1.96-1.56-2.94-2.34-.32-.26-.63-.44-1.06-.44-.37,0-.81.16-1.06.44s-.46.66-.44,1.06c.02.37.14.82.44,1.06.79.63,1.58,1.26,2.37,1.89.44.35.86.73,1.34,1.01.27.15.57.29.87.36.45.1.85.09,1.3,0,.35-.06.72-.39.9-.69.19-.32.27-.8.15-1.16s-.34-.71-.69-.9c-.37-.2-.74-.23-1.16-.15h0Z"/>
  <path class="cls-6" d="m574.6,371.25c-.13-.04-.26-.08-.39-.13-.03-.01-.33-.13-.17-.06-.22-.1-.44-.21-.65-.33-.24-.13-.47-.27-.69-.43-.11-.08-.22-.15-.33-.23-.02-.02-.2-.15-.09-.06-.85-.66-1.6-1.45-2.33-2.24-1.7-1.86-3.36-3.75-5.04-5.63-.54-.6-1.57-.55-2.12,0-.6.6-.54,1.52,0,2.12,1.75,1.96,3.47,3.96,5.26,5.88,1.61,1.73,3.45,3.29,5.74,4.01.77.24,1.64-.29,1.85-1.05.22-.8-.27-1.6-1.05-1.85h0Z"/>
  <path class="cls-6" d="m580.93,377.15l-3.01-1.97c-.9-.59-1.87-1.21-2.59-1.8-1.61-1.33-2.81-2.74-3.84-4.47-.41-.7-1.35-.95-2.05-.54s-.95,1.35-.54,2.05c1.14,1.91,2.59,3.66,4.31,5.08,1.92,1.59,4.11,2.87,6.2,4.24.68.44,1.66.14,2.05-.54.43-.73.14-1.61-.54-2.05h0Z"/>
  <path class="cls-6" d="m565.12,361.47c-1.02-1.49-2.24-2.82-3.42-4.18s-2.15-2.85-3-4.46c-1.81-3.44-3.44-7-4.91-10.6-2.93-7.17-5.24-14.57-6.93-22.13-.42-1.88-3.31-1.09-2.89.8,1.72,7.7,4.09,15.26,7.1,22.56,1.47,3.55,3.06,7.06,4.82,10.48.89,1.73,1.9,3.35,3.14,4.85,1.17,1.41,2.46,2.7,3.49,4.21s3.68.09,2.59-1.51h0Z"/>
  <path class="cls-6" d="m547.38,319.93c-.56-1.97-1.16-3.97-1.33-6.02-.18-2.19-.01-4.39-.48-6.55-.17-.79-1.1-1.25-1.85-1.05-.82.23-1.22,1.05-1.05,1.85.44,2.04.19,4.16.42,6.22.24,2.17.8,4.26,1.39,6.35.53,1.85,3.42,1.07,2.89-.8h0Z"/>
  <path class="cls-6" d="m545.71,309.62c-1.61-6.13-2.87-12.35-3.7-18.64-.11-.8-.61-1.5-1.5-1.5-.73,0-1.61.69-1.5,1.5.87,6.55,2.12,13.04,3.8,19.44.49,1.87,3.39,1.07,2.89-.8h0Z"/>
  <path class="cls-6" d="m542.29,291.4c-.68-6.27-1.68-12.63-1.2-18.95.15-1.93-2.85-1.92-3,0-.48,6.32.52,12.68,1.2,18.95.09.81.63,1.5,1.5,1.5.74,0,1.59-.69,1.5-1.5h0Z"/>
  <path class="cls-6" d="m541.23,272.21c-.18-8.01,2.73-15.67,3.37-23.61.15-1.92-2.85-1.91-3,0-.63,7.95-3.55,15.58-3.37,23.61.04,1.93,3.04,1.93,3,0h0Z"/>
  <path class="cls-6" d="m545.4,250.32c-.26-8.63,2.21-16.94,4.74-25.09.57-1.85-2.32-2.64-2.89-.8-2.61,8.4-5.11,17-4.84,25.89.06,1.93,3.06,1.93,3,0h0Z"/>
  <path class="cls-6" d="m550.59,226.51c1.88-5.62,4.48-10.94,7.43-16.07,1.43-2.5,2.95-4.95,4.5-7.37.82-1.28,1.64-2.55,2.48-3.81.72-1.09,1.46-2.22,2.55-2.99,1.57-1.1.07-3.71-1.51-2.59-2.38,1.68-3.81,4.32-5.36,6.72-1.73,2.67-3.41,5.37-5.01,8.13-3.17,5.47-5.95,11.18-7.96,17.18-.62,1.83,2.28,2.62,2.89.8h0Z"/>
  <path class="cls-6" d="m565.41,199.35c1.33-.97,2.59-2.03,3.72-3.23.55-.58,1.07-1.17,1.61-1.76.59-.65,1.26-1.33,1.41-2.22.1-.54.02-1.05-.39-1.46-.36-.36-.96-.56-1.46-.39-.37.13-.73.28-1.04.52s-.58.49-.69.9c-.1.36-.05.84.15,1.16.4.61,1.38,1.05,2.05.54.09-.07.18-.13.28-.19.33-.19-.24.07.04-.02l-1.85-1.85c-.01.08-.04.16-.06.23-.03.08-.02.06.02-.05.05-.12.05-.12,0,0-.04.05-.07.11-.1.17-.14.23.15-.16.02-.03-.23.25-.45.51-.68.76-.5.56-1,1.12-1.52,1.66-.49.51-1.01,1.01-1.54,1.47-.26.23-.52.45-.79.67-.07.06-.15.12-.23.18-.17.14.28-.21-.02.01-.15.12-.31.23-.46.34-.33.24-.58.5-.69.9-.1.36-.05.84.15,1.16.4.63,1.37,1.03,2.05.54h0Z"/>
  <path class="cls-6" d="m567.38,196.09c.47,0,.91-.14,1.31-.37.21-.12.39-.27.58-.41.42-.32.84-.65,1.27-.97l-1.82-2.36c-.21.17-.42.34-.63.51-.19.19-.31.41-.39.66-.07.27-.07.53,0,.8.07.25.2.47.39.66.19.19.41.31.66.39.16.07.34.07.51.08.13,0,.33-.03.46-.06.14-.03.28-.1.4-.17.15-.08.28-.19.4-.31.1-.1.19-.21.26-.34s.13-.28.17-.41c.07-.27.07-.53,0-.8-.05-.2-.14-.37-.27-.51-.11-.16-.25-.29-.42-.39-.23-.14-.49-.2-.76-.2-.14,0-.29-.02-.43-.02l.4,2.95c.13-.05.25-.1.38-.16l.3-.23c.1-.09.19-.21.26-.33.2-.35.28-.82.16-1.22-.21-.69-.81-1.2-1.55-1.21-.5,0-.97.22-1.31.58-.12.13-.24.27-.37.41-.27.29-.44.66-.44,1.06,0,.37.16.81.44,1.06s.66.46,1.06.44.79-.14,1.06-.44c.15-.17.29-.36.47-.5l-.3.23s.04-.02.06-.03l-.36.15s.04-.01.06-.02l-.4.05h.03c-.13-.02-.27-.04-.4-.05h.02c-.12-.05-.24-.1-.36-.15h.02c-.1-.07-.2-.15-.3-.22.01,0,.02.02.03.03l-.23-.3s.02.03.02.04l-.15-.36v.02c-.01-.13-.03-.27-.05-.4,0,.01,0,.03,0,.04l.05-.4v.02c.04-.12.1-.24.15-.36v.02c.07-.1.15-.2.22-.3h-.01c.22-.12.44-.24.66-.37h-.02c-.2.05-.37.14-.51.28-.16.11-.29.25-.39.42l-.15.36c-.06.2-.07.4-.03.6,0,.14.03.26.1.38.06.19.16.35.31.48.3.28.65.42,1.06.44.14,0,.29.02.43.02l-1.45-1.9s0,.04-.02.06l.15-.36v.03c.06-.1.14-.2.22-.3-.02.03-.04.04-.06.06l.3-.23s-.03.02-.05.03l.36-.15s-.04.01-.06.02l.4-.05s-.06,0-.09,0l.4.05s-.04,0-.06-.02l.66,2.51c.21-.17.42-.34.63-.51.15-.14.25-.3.31-.48.09-.18.14-.37.13-.58l-.05-.4c-.05-.2-.14-.37-.27-.51-.19-.25-.47-.47-.78-.54l-.4-.05c-.27,0-.52.07-.76.2-.35.27-.7.53-1.04.8-.31.24-.62.52-.98.67l.36-.15c-.09.03-.17.06-.26.07l.4-.05s-.08,0-.12,0c-.39,0-.79.16-1.06.44-.26.26-.46.69-.44,1.06s.14.79.44,1.06.66.44,1.06.44h0Z"/>
  <path class="cls-6" d="m571.72,192.74c1.93,0,1.93-3,0-3s-1.93,3,0,3h0Z"/>
</svg>