<?xml version="1.0" encoding="UTF-8"?>
<svg id="Layer_2" data-name="Layer 2" xmlns="http://www.w3.org/2000/svg" viewBox="0 0 1090.26 1080.21">
  <defs>
    <style>
      .cls-1 {
        fill: #444d5c;
      }

      .cls-1, .cls-2, .cls-3, .cls-4, .cls-5, .cls-6, .cls-7, .cls-8, .cls-9, .cls-10, .cls-11, .cls-12, .cls-13, .cls-14, .cls-15, .cls-16, .cls-17, .cls-18, .cls-19, .cls-20, .cls-21, .cls-22, .cls-23, .cls-24, .cls-25, .cls-26 {
        stroke-width: 0px;
      }

      .cls-2 {
        fill: #351729;
      }

      .cls-3 {
        fill: #f9a227;
      }

      .cls-27, .cls-28, .cls-29 {
        stroke-miterlimit: 10;
      }

      .cls-27, .cls-28, .cls-29, .cls-30 {
        fill: none;
        stroke: #000;
      }

      .cls-4 {
        fill: #5b849a;
      }

      .cls-5 {
        fill: #f32623;
      }

      .cls-28 {
        stroke-width: 6px;
      }

      .cls-7 {
        fill: #d51c16;
      }

      .cls-8 {
        fill: #f3ec7c;
      }

      .cls-9 {
        fill: #fba730;
      }

      .cls-10 {
        fill: #edefd2;
      }

      .cls-11 {
        fill: #db4f24;
      }

      .cls-29, .cls-30 {
        stroke-width: 2px;
      }

      .cls-12 {
        fill: #60879b;
      }

      .cls-13 {
        fill: #5a849b;
      }

      .cls-14 {
        fill: #454c5c;
      }

      .cls-15 {
        fill: #b0c8d2;
      }

      .cls-16 {
        fill: #a32f20;
      }

      .cls-17 {
        fill: #aec9d3;
      }

      .cls-18 {
        fill: #5b839b;
      }

      .cls-19 {
        fill: #414e5b;
      }

      .cls-20 {
        fill: #444d5d;
      }

      .cls-21 {
        fill: #474a5d;
      }

      .cls-30 {
        stroke-linecap: round;
        stroke-linejoin: round;
      }

      .cls-22 {
        fill: #f2942f;
      }

      .cls-23 {
        fill: #fde1af;
      }

      .cls-24 {
        fill: #adc9d1;
      }

      .cls-25 {
        fill: #f06c2c;
      }

      .cls-26 {
        fill: #628198;
      }
    </style>
  </defs>
  <g>
    <g>
      <path class="cls-25" d="m283.22,281.81v-.07c6.4.98,11.98,2.37,14.57,4.28-.01,2.26-.17,4.44-.44,6.55l-.22,1.59-6.7,22.06h0c-2.48,6.39-4.8,12.42-5.49,18.65-.19,1.71-.48,3.84-.76,6.28l-.96-59.34Z"/>
      <path class="cls-9" d="m309.64,268.66l-.88,1.29-.06.08-.02.03-9.95,12.6-.35,2.49-.59.87c-2.59-1.91-8.17-3.3-14.57-4.28h0c-2.06-.31-4.2-.58-6.35-.81-.02-.2-.14-.22-.37-.04-7.79-.81-15.71-1.1-20.4-1-12.33.26-20.71,3.13-25.61,5.54,5.92-19.83,34.42-33.54,34.42-33.54-1.79-3.7-25.28,11.11-25.28,11.11l-5.49-4.58c12.46-17.57,33.36-24.99,33.36-24.99,0,12.76,19.41,10.21,19.41,10.21,21.61,0,27.91,17.45,27.91,17.45l-5.17,7.57Z"/>
      <path class="cls-22" d="m588.68,949.85s6.74-6.61,12.82.95c-1.7,4.37-3.91,7.83-7.24,10.73-10.94-3.47-5.58-11.68-5.58-11.68Z"/>
      <path class="cls-22" d="m538.98,996.47c-9.19-1.38-7.49-2.36-9.87-4.41-2.38-2.04-11.91,4.94-11.91,4.94-4.26-17.7,26.21-19.57,26.21-19.57,28.8-5.28,42.98-9.04,50.85-15.9,3.33-2.9,5.54-6.36,7.24-10.73.76-1.96,1.43-4.11,2.05-6.47.21-.8.42-1.63.62-2.48,1.39-5.81,2.5-15.38,3.4-26.35.85,15.85,23.63-11.6,23.63-11.6h.01l.37,51.74s23.15-21.11,24.34-8c1.19,13.1,0,14.13,0,14.13,0,0-1.87-6.98-11.58,1.53l-9.7,8.51,29.11,19.4s29.28,4.6,22.64,20.94c0,0-7.15-5.96-8-2.04-.85,3.91-17.36.51-41.36-16.34-24-16.86-60.6,7.66-62.3,6.8-1.7-.85-20.43,11.41-26.05,2.22,0,0,.22-4.77-12.91,5.1,0-.05.01-6.41,3.21-11.42Z"/>
      <path class="cls-22" d="m609.02,893.52c1.37-25.64,1.83-50.7,1.83-50.7l2.69-3.69s8.13,7.77,17.24,5.98l.43,58.79h-.01s-22.78,27.45-23.63,11.6c.57-6.97,1.05-14.5,1.45-21.98Z"/>
      <path class="cls-22" d="m410.93,976.58l-1.82-.86c-6.81-5.44-21.11.68-21.11.68,6.47-10.55,11.58-21.78,50.73-17.7,19.76,2.06,33.53-9.66,42.33-21.78,0,0,.01,0,0-.01,8.64-11.89,12.48-24.17,12.48-24.17l1.44-5.68,4.81-18.99c.11.4,3.23,11.74,19.53-5.12l-4.51,26.56c-2.21,12.6-1.59,33.36-1.59,33.36,0,0,10.27-9.87,15.04-2.55s.68,10.89.68,10.89c-2.89-3.74-8.68,4.26-8.68,4.26,0,0-22.13,25.36-22.64,29.1-.51,3.75-7.66,5.79-7.66,1.2s-6.13,9.7-6.13,9.7c-10.84-12.66,5.92-28.95,12.42-34.49.85-.64,1.63-1.27,2.34-1.9-.22.16-1.09.83-2.34,1.9-16.98,12.77-59.31,26.43-67.74,21.89-8.85-4.76-19.06,2.39-19.06,2.39,0,0-.47-4.36,1.48-8.68Z"/>
      <path class="cls-22" d="m520.9,873.65l-1.57,9.29h-.01c-16.3,16.87-19.42,5.53-19.53,5.13h0s3.9-15.38,3.9-15.38c0,0-.35,15.31,17.21.96Z"/>
      <path class="cls-12" d="m687.76,259.8c-.64.41-1.19.82-1.64,1.23.19-.14.76-.57,1.64-1.23Zm.03-.02c12.91-8.35,61-17.33,61-17.33,0,0,58.79,13.27,83.3,51.57,0,0-117.5-82.89-191.6,86.24l-.03.06c-7.06,16.12-13.73,34.54-19.86,55.54-7.4,7.95-14.1,15.64-20.12,22.57l-2.77,2.91c-2.15-30.6-2.22-141.84,1.36-152.51,0,0,6.22-64.29,54.3-105.19,102.63-87.32,191.49,3.57,191.49,3.57,0,0-21.62-7.49-26.9-2.04,0,0,95.83,66.38,82.04,164.94-2.93,20.95-4.53,26.28-6.7,21.88h0c.04-.4.08-.79.11-1.17l.09.45c1.25,6.61,1.07-6.81.61-17.37-.88-74.1-53.32-127.62-53.32-127.62-43.65-43.92-76.96-41.28-76.96-41.28,0,0,15.49,8.68,8.68,7.83-6.8-.85-18.89-2.72-30.8-1.36-11.92,1.36-18.9,8-19.75,10.38s-5.28,3.58-5.28,3.58c-39.31,11.23-43.74,23.14-43.74,23.14,16.34-7.14,71.15-22.97,54.64-14.8-13.9,6.88-33.84,21.55-39.79,26.01Zm-26.68-10.18c-2.89.76,37.19-60.77,110.38-59.92,0,0-46.89-14.13-91.57,23.15-44.68,37.28-55.66,100.71-55.66,100.71,0,0-2.32,20.84-2.39,60.82-.05,1.33-.06,2.39-.05,3.15.01.95.04,1.45.04,1.45,0-1.56,0-3.1.01-4.6.4-11.81,3.9-45.45,28.6-89.7,0,0-2.98.94-7.83,4.51s14.56-32.17,21.62-38.72c0,0-.26-1.62-3.15-.85Z"/>
      <path class="cls-20" d="m893.41,390.82c.56-5.75.78-11.39.7-16.92.46,10.56.64,23.98-.61,17.37l-.09-.45Z"/>
      <path class="cls-20" d="m894.11,373.9c.08,5.53-.14,11.17-.7,16.92-2.54-13.36-5.49-25.56-8.77-36.7t0,0l-15.06-65.86c.63,1.05,20.53,34.69,24.03,77.09.17,2.04.35,5.15.5,8.56Z"/>
      <path class="cls-20" d="m869.58,288.25l15.06,65.86c-41.46-140.6-135.85-111.66-135.85-111.66,0,0-48.09,8.98-61,17.33,5.95-4.46,25.89-19.13,39.79-26.01,16.51-8.17-38.3,7.66-54.64,14.8,0,0,4.43-11.91,43.74-23.14,0,0,4.43-1.2,5.28-3.58s7.83-9.02,19.75-10.38c11.91-1.36,24,.51,30.8,1.36,6.81.85-8.68-7.83-8.68-7.83,0,0,33.31-2.64,76.96,41.28,0,0,52.44,53.52,53.32,127.62-.15-3.41-.33-6.52-.5-8.56-3.5-42.4-23.4-76.04-24.03-77.09Z"/>
      <path class="cls-20" d="m893.41,390.82c-.03.38-.07.77-.11,1.16h-.01s-8.65-37.86-8.65-37.86c3.28,11.14,6.23,23.34,8.77,36.7Z"/>
      <path class="cls-12" d="m884.64,354.12l8.65,37.85c-8.04-16.4-23.98-166-144.5-149.52,0,0,94.39-28.94,135.85,111.66t0,0Z"/>
      <path class="cls-4" d="m696.67,333.59c.95-.82,49.73-42.53,111.92,8.35-.24-.58-8.34-19.29-51.82-32.85,0,0-35.71-5.11-60.1,24.5Zm-61.02,94.37c1.4-1.37,53.82-52.26,101.38-35.64,0,0,.21-3.7-2.86-5.11-3.06-1.4,11.48-3.32,46.32,7.14-.86-.51-32.3-18.68-79.76-14.03,0,0-35.34,8.53-65.08,47.64Zm-15.05,7.9c6.13-21,12.8-39.42,19.86-55.54l.03-.06c1.42-2.99,52.39-108.88,137.82-85.22,136.74,37.88,96.67,306.39,96.67,306.39,0,0-11.86-107.05-27.96-169.04h0c-2.76-10.66-5.65-19.97-8.63-27.19,0,0,0-.02-.01-.03-34.55-59.91-80.37-63.22-80.37-63.22,0,0-.07.01-.2.02-.05,0-.1.01-.15.02-6.45.79-12.74,2.21-18.65,3.94-.06.02-.11.03-.16.05-6.34,1.78-13.54,4.26-20.46,7.67-10.98,4.98-18.05,9.56-18.05,9.56,0,0,50.87-12.81,91.38,20.37h.01c12.33,10.11,23.7,24.47,32.38,44.76.19.45.39.9.57,1.37,1.8,4.4,3.55,9.18,5.22,14.39.09.25.17.51.25.77,8.59,27.85,12.75,64.69,9.55,113.34-.67,10.44-1.7,21.43-3.09,32.99-.26-1.17-.94-2.98-1.97-5.29-.47-5.26-.47-11.24-.33-17.67.42-20.97,2.18-46.74-7.29-68.37h.03c11.36,25.88,9.67,46.41,9.67,46.41,9.48-67.15-38.33-107.68-38.33-107.68l3.32-2.88c-4.09-4.85-7.92-3.34-7.92-3.34,2.81-12.27-31.15-41.85-28.08-35.21,3.06,6.64,2.04,17.36,2.04,17.36-10.81-7.17-22.32-10.6-32.68-12.05-18.75-2.62-33.7,1.29-33.7,1.29,13.02.73,21.44,8.46,21.44,8.46-18.64-2.55-34.98,3.83-34.98,3.83l-1.45,5.88c-26.06,10.8-52.04,39.64-52.85,40.54-9.91,6.89-19.57,11.29-28.14,14.09.09-.16.26-.33.49-.49l-14.11,2.76,16.32-3.2,23.31-24.24c-.56.42-21.94,16.83-21.27,9.94.68-6.98,36.09-25.87,26.74-22.3-9.16,3.51-40.13,24.28-41.37,25.11,1.6-1.84,3.26-3.75,4.98-5.72l19.52-20.51c.2-.69.4-1.38.6-2.06Z"/>
      <path class="cls-1" d="m847.82,457.17c.07,2.09.03,5.13-.07,8.81-.05-4.46-.11-8.67-.18-12.49.13,1.34.21,2.58.25,3.68Z"/>
      <path class="cls-1" d="m847.57,453.49c.07,3.82.13,8.03.18,12.49-.66,21.95-3.98,66.54-3.98,66.54-1.43-37.64-6.81-66.17-13.62-87.65-.08-.26-.16-.52-.25-.77-1.59-5.1-3.34-9.89-5.22-14.39-.18-.47-.38-.92-.57-1.37-14.61-34.88-31.94-44.51-32.38-44.75h-.01c-32.08-30.97-84.43-23.38-84.43-23.38,3.48-2.5,7.24-4.68,11.1-6.56,5.86-2.66,12.84-5.43,20.46-7.67.05-.02.1-.03.16-.05,9.48-2.64,16.99-3.72,18.65-3.94.05,0,.1-.02.15-.02.13-.01.2-.02.2-.02,0,0,45.82,3.31,80.37,63.22.01.01.01.02.01.03.25,1.05,7.66,32.22,9.18,48.29Z"/>
      <path class="cls-14" d="m798.39,438.6s47.81,40.53,38.33,107.68c0,0,1.69-20.53-9.67-46.42-6.16-14.09-16.2-29.77-32.48-44.58l-.09-.09c-1.61-1.55-3.19-3.01-4.75-4.38h-.01c-20.41-35.73-54.82-45.64-54.82-45.64l.17-2.69c10.36,1.45,21.87,4.88,32.68,12.05,0,0,1.02-10.72-2.04-17.36-3.07-6.64,30.89,22.94,28.08,35.21,0,0,3.83-1.51,7.92,3.34l-3.32,2.88Z"/>
      <path class="cls-13" d="m764.8,451.88l-1.83,1.82c-71.73-35.79-136.33,27.66-136.33,27.66l.18.52c-.77.27-1.55.54-2.32.8-8.62-1.39-20.54-3.76-19.11-6.11,8.57-2.8,18.23-7.2,28.14-14.09.14-.09.29-.2.44-.3,53.94-36.66,90.21-39.4,110.06-36.13,4.87.95,9.57,2.45,14.02,4.57,0,0,1.55.51,4.26,1.76,0,.01.02.01.03.02,12.77,7.09,23.36,14.82,32.14,22.79l.09.09c9.6,9.29,19.91,21.78,29.35,38.4,1.15,2.02,2.17,4.08,3.1,6.19,9.47,21.63,7.71,47.4,7.29,68.37-3.59-97.15-64.73-115.1-69.51-116.36Z"/>
      <path class="cls-18" d="m626.82,481.88l-.18-.52c43.75-21.01,61.19-23.76,61.19-23.76-3.66,2.21-6.21,5.61-6.21,5.61,61.07-21.36,108.86,9.48,109.97,10.21-9.58-8.55-19.16-15-28.62-19.72l1.83-1.82c4.78,1.26,65.92,19.21,69.51,116.36-.14,6.43-.14,12.41.33,17.67-9.78-22.08-50.69-89.6-44.42-77.93,5.82,10.84,2.06,39.74,2.06,39.74.09-3.64-.15-7.17-.67-10.6,0,0,0-.03-.01-.04-.4-.86-27.91-58.08-158.66-53.18,0,0-3.73-.46-8.44-1.22.77-.26,1.55-.53,2.32-.8Z"/>
      <path class="cls-1" d="m829.9,444.1c-1.67-5.21-3.42-9.99-5.22-14.39,1.88,4.5,3.63,9.29,5.22,14.39Z"/>
      <path class="cls-18" d="m732.91,537.1c20.79,17.1,23.41,26.79,23.41,26.79-33.7-26.45-57.48-25.22-58.1-25.18h-.01c-4.77-4.6-11.08-10.11-18.95-15.83l18.95-.77s-25.61-13.79-22.89-18.73c.68-1.23,3.49-1.88,8.17-1.48,14.02,1.2,44.78,11.83,85.11,44.38l-8.84-10.72c.45.29,14.82,9.74,16.33,12.25,0,0-3.74-12.37-44.21-38.34,11.19,3.68,20.81,7.93,28.87,12.13.03.02.06.04.09.05,12.59,7.41,22.94,16.27,31.44,26.07,46.93,54.13,37.16,137.14,32.49,163.79,2.43-18.25-2.03-38.37-8.63-56.49-2.41-6.62-5.1-12.96-7.85-18.86h.01c.71-50.53-73.94-98.14-75.39-99.06Z"/>
      <path class="cls-19" d="m787.38,598.96c5.5,9.15,10.07,18.03,13.81,26.61-14.51-20.52-49.65-64.53-89.95-74.38-.65-.16-1.31-.31-1.96-.45,0,0-3.67-4.9-11.06-12.03.62-.04,24.4-1.27,58.1,25.18,0,0-2.62-9.69-23.41-26.79,1.45.92,76.1,48.53,75.39,99.07h-.01s-.03-.08-.06-.12c-9.65-20.72-19.96-35.8-20.85-37.09Z"/>
      <path class="cls-18" d="m803.32,754.45c4.77-45.62-18.38-88.17-18.38-88.17,0,0-.77,16.25-3.62,20.55-.45-1.56-.91-3.1-1.39-4.62-9.52-68.83-56.51-101.13-56.51-101.13-2.29-6.51-4.79-12.84-7.44-18.46.35-.07,9.28-1.22,60.11,45.44,0,0-29.1-43.94-64.85-56.86h0c40.3,9.84,75.44,53.85,89.95,74.37,33.5,76.61,2.13,128.88,2.13,128.88Z"/>
      <path class="cls-17" d="m756.77,309.09c43.48,13.56,51.58,32.27,51.82,32.85-62.19-50.88-110.97-9.17-111.92-8.35,24.39-29.61,60.1-24.5,60.1-24.5Z"/>
      <path class="cls-21" d="m791.61,537.12v5.58s-10.31-10.36-30.77-21.05c-.03-.01-.06-.03-.09-.05-9.19-5.39-19.57-10.02-31.28-13.67-14.9-4.65-31.95-7.72-51.46-8.82h-.09c-11.61-.81-24.1-.81-37.46.24l-36.82-11.45c6.25-.78,13.58-2.78,20.86-5.22,4.71.76,8.44,1.22,8.44,1.22,130.75-4.9,158.26,52.32,158.66,53.18.01.01.01.03.01.04Z"/>
      <path class="cls-14" d="m789.73,450.81c1.56,1.37,3.14,2.83,4.75,4.38-8.78-7.97-19.37-15.7-32.14-22.79,5.47,2.52,15.65,8.04,27.38,18.4h.01Z"/>
      <path class="cls-14" d="m762.31,432.38s-5.99-4.32-18.28-6.33c-35.75-7-81.02,15.22-108.88,35.29-.39.28-.79.56-1.18.84-.15.1-.3.21-.44.3.81-.9,26.79-29.74,52.85-40.54l1.45-5.88s16.34-6.38,34.98-3.83c0,0-8.42-7.73-21.44-8.46,0,0,14.95-3.91,33.7-1.29l-.17,2.69s34.41,9.91,54.82,45.63c-11.73-10.36-21.91-15.88-27.38-18.4-.01-.01-.02-.01-.03-.02Z"/>
      <path class="cls-19" d="m781.32,686.83c3.25,11.15,5.92,23.32,7.36,36.07,0,0-22.28-49.38-26.63-44.58-5.76-13.65-13.58-28.92-24.18-44.98h0c-.63-2.96-3.4-15.62-7.65-30.66,19.6,10.78,48.78,77.4,49.69,79.48.01.02.01.04.02.05.48,1.52.94,3.06,1.39,4.62Z"/>
      <path class="cls-19" d="m779.91,682.16c-.91-2.08-30.09-68.7-49.69-79.48h0s-.01-.01-.01-.01c-1.97-6.93-4.25-14.37-6.79-21.59,0,0,46.99,32.3,56.51,101.13-.01-.01-.01-.03-.02-.05Z"/>
      <path class="cls-19" d="m762.05,678.32c11.18,26.46,14.65,46.82,15.68,55.09-5.14-16.2-42.75-67.26-43.38-68.12h-.01c-2.52-5.07-7.14-12.61-15.61-22.67,0,0,12.93,3.57,21.27,15.32,0,0-1.76-9.8-9.76-32.59-2.24-6.38-4.97-13.78-8.27-22.26.22.26,3.89,4.77,15.34,29.39.22.49.45.99.69,1.5,0,0-.05-.22-.13-.64,10.6,16.06,18.42,31.33,24.18,44.98Z"/>
      <path class="cls-24" d="m771.49,189.68c-73.19-.85-113.27,60.68-110.38,59.92,2.89-.77,3.15.85,3.15.85-7.06,6.55-26.47,42.29-21.62,38.72s7.83-4.51,7.83-4.51c-24.7,44.25-28.2,77.89-28.6,89.7.07-39.98,2.39-60.82,2.39-60.82,0,0,10.98-63.43,55.66-100.71,44.68-37.28,91.57-23.15,91.57-23.15Z"/>
      <path class="cls-15" d="m759.76,535.56l8.84,10.72c-40.33-32.55-71.09-43.18-85.11-44.38l.2-2.34c18.4,1.71,34.47,5.38,48.19,9.91,40.47,25.97,44.21,38.34,44.21,38.34-1.51-2.51-15.88-11.96-16.33-12.25Z"/>
      <path class="cls-15" d="m762.97,453.7c9.46,4.72,19.04,11.17,28.62,19.72-1.11-.73-48.9-31.57-109.97-10.21,0,0,2.55-3.4,6.21-5.61,0,0-17.44,2.75-61.19,23.76,0,0,64.6-63.45,136.33-27.66Z"/>
      <path class="cls-15" d="m711.24,551.2c35.75,12.92,64.85,56.86,64.85,56.86-50.83-46.66-59.76-45.51-60.11-45.44h-.01l-.05-.12-4.68-11.3Z"/>
      <path class="cls-15" d="m780.49,394.35c-34.84-10.46-49.38-8.54-46.32-7.14,3.07,1.41,2.86,5.11,2.86,5.11-47.56-16.62-99.98,34.27-101.38,35.64,29.74-39.11,65.08-47.64,65.08-47.64,47.46-4.65,78.9,13.52,79.76,14.03Z"/>
      <path class="cls-18" d="m721.97,603.09c3.3,8.48,6.03,15.88,8.27,22.26,8,22.79,9.76,32.59,9.76,32.59-8.34-11.75-21.27-15.32-21.27-15.32,8.47,10.06,13.09,17.6,15.61,22.66h.01c2.58,5.22,2.93,7.81,2.93,7.81-3.71-4.42-7.51-8.65-11.35-12.68-35.6-37.37-74.44-57.62-74.44-57.62,39.9,40.96,56.9,74.35,64.06,93.75,0,0-.55,3.89-1.77,9.56-42.27-52.14-93.1-66.38-93.1-66.38,13.62,14.47-26.55,2.05-26.55,2.05l2.28,1.71c53.79,39.89,86.23,48.5,86.23,48.5-6.45.71-12.77.69-18.74.22l-5.71-1.07c-16.96-5.58-57.13-30.46-55.12-26.9,2.3,4.09-5.36,1.37-5.36,1.37-18.29-10.19-40.01-9.81-32.78-3.97-8.36-6.16-23.67-18.29-27.82-27.18,0,0,27.06,14.12,58.89,12.93,0,0-.6-.41-1.65-1.14-.81-.56-1.89-1.32-3.17-2.23-.77-.55-1.61-1.15-2.5-1.8-9.33-6.8-24.64-18.69-27.91-25.81,0,0,51.4,14.13,54.47,5.11,3.02-8.89-14.96-29.85-15.48-30.46.61.37,20.12,12.48,33.86,26.89,13.96,14.63-7.49-27.58-17.53-35.75,0,0,27.23,4.26,37.62,2.04,10.38-2.21-10.22-27.74-10.22-27.74,0,0,12.77-.68,22.3,2.72.6.21,1.08.31,1.47.31,5.67,0-10.56-21.84-10.99-22.42.46.13,30.34,9.01,47.46,16.67,5.75,2.58,10.06,5.02,11.32,6.94.29.59.58,1.18.87,1.79l.05.12h.01c2.65,5.62,5.15,11.95,7.44,18.46,2.54,7.22,4.82,14.66,6.79,21.59h.01c4.25,15.05,7.02,27.71,7.65,30.66-.18-.28-.37-.57-.56-.85-11.45-24.62-15.12-29.13-15.34-29.39Z"/>
      <path class="cls-14" d="m744.03,426.05c-19.85-3.27-56.12-.53-110.06,36.13.39-.28.79-.56,1.18-.84,27.86-20.07,73.13-42.29,108.88-35.29Z"/>
      <path class="cls-21" d="m760.75,521.6c-8.06-4.2-17.68-8.45-28.87-12.13-.79-.51-1.59-1.02-2.41-1.54,11.71,3.65,22.09,8.28,31.28,13.67Z"/>
      <path class="cls-21" d="m729.47,507.93c.82.52,1.62,1.03,2.41,1.54-13.72-4.53-29.79-8.2-48.19-9.91-1.87-.17-3.76-.33-5.68-.45,19.51,1.1,36.56,4.17,51.46,8.82Z"/>
      <path class="cls-19" d="m725.93,660.41s6.92,39.38-5.59,52.86c-.47-2.66-1.73-8.41-4.79-16.73-7.16-19.4-24.16-52.79-64.06-93.75,0,0,38.84,20.25,74.44,57.62Z"/>
      <path class="cls-1" d="m718.39,353.65c6.92-3.41,14.12-5.89,20.46-7.67-7.62,2.24-14.6,5.01-20.46,7.67Z"/>
      <path class="cls-19" d="m713.78,706.1c-.05.24-.1.48-.16.73,0-.03.01-.05.01-.08l-12.43-13.75-34.56.34-8.15-1.68c.9.11,1.81.21,2.73.31,1.06.22,1.95.31,2.64.23h.04c5.97.47,12.29.49,18.74-.22,0,0-32.44-8.61-86.23-48.5l-2.28-1.71s40.17,12.42,26.55-2.05c0,0,50.83,14.24,93.1,66.38Z"/>
      <path class="cls-16" d="m503.08,778.71c-1.57-.07-3.13-.15-4.69-.25l-10.41-1.9-25.96-4.73-16.2-2.95h-.04s-45.65-19.07-45.65-19.07c-.06-.03-.11-.06-.17-.09l-43.23-28.54-44.09-41.89s-.03-.02-.03-.03l-23.56-29.84c-2.08-3.01-3.53-5.24-4.33-6.49l-.02-.03-9.97-21.56,11.16,9.09c4.07,4.65,8.83,8.69,14.38,11.71h.01s.01.01.01.01c3.89,2.12,8.18,3.74,12.9,4.72h.01c.59.13,1.18.24,1.78.34-.1-.06-1.53-1.04-3.65-3.08l-12.9-18.97c-1.04-2.33-2.02-4.86-2.9-7.61l-.38-10.51,1.95,2.01c3.6,6.41,9.37,13.73,18.45,19.04.01.01.03.02.05.03,5.63,3.3,12.54,5.81,21,6.84l-18.14-28.9,13.26,10.99c5.12,6.23,11.19,11.29,18.16,13.31,0,0,0-.01,0-.03.22-.57,3.79-10.03,6.94-25.32,1.19-5.76,2.32-12.36,3.18-19.62l.59-2.6,5.54,6c6.41,9.98,15.15,20.6,26.53,28.7l1.67,1.81.11-.58c.29.2.58.39.87.58.01-.11.72-5.12,1.2-11.79l2.74-14.82.12.11c.88.9,1.86,1.8,2.92,2.67,0,0,2.86-2.42,3.45-11.18h0s1.63-5.29,1.63-5.29l.17.27c1.93,3.21,5.39,9.17,10.67,16.8.01.02.02.03.03.05,3.01,4.36,6.61,9.26,10.86,14.51.54.67,1.08,1.33,1.62,1.98.65.79,1.32,1.59,2.02,2.4.77.91,1.57,1.83,2.38,2.76,12.18,13.93,28.59,29.46,50.04,43.31.16.11.32.22.48.31,37.03,24.48,74.65,34.81,104.6,38.79,35.24,4.7,59.89.63,60.55.52h.01c.47-.02.94-.05,1.41-.08,0,0-.78-.12-2.24-.6l-16.55-13.51.31.06.21.04h.04s5.21,1.08,5.21,1.08c5.42,1.54,11.98,3.05,19.22,3.96.02,0,.05.01.07.01l8.15,1.68,34.56-.34,12.43,13.75s-.01.05-.01.08v.03c-2.23,10.14-6.51,25.41-13.46,34.59,0,.01,0,.02-.02.03-5.38,5.89-10.49,7.43-11.7,7.73-.01,0-.03,0-.05,0-.5.05-1.01.06-1.53.04-.24,7.24-1.47,16.08-5.04,24.75-5.77,11.28-14.77,20.14-24.1,26.81t-.01.01c-2.5,1.35-5.21,2.59-8.14,3.7h0c-.57.95-1.2,1.83-1.86,2.63-7.24,4.04-14.03,6.78-18.98,8.35h-.01c-2.04.05-3.97-.07-5.69-.25,0-.01.01-.01.01-.01,16.29-7.96,11.27-35.61,11.27-35.61-12.76,1.7-12.76-.77-12.76-.77,21.27-7.06,30.46-29.6,30.46-29.6-1.87,17.11,1.03,18.62,1.03,18.62,11.06-2.21,13.95-17.19,11.74-19.91s-.87-9.02-.87-9.02c-3.25-.85-3.04-6.05-3.04-6.05-1.03-12.85-11.24-12-13.28-7.06s-8.68,4.26-8.68,4.26c-4.7-5.55-11.18-3.85-13.18-3.14-.39.14-.61.24-.61.24-13.45-6.3-26.38-4.31-26.38-4.31-9.02-4.13-5.28-11.69-5.28-11.69-1.58-.18-3.13-.37-4.64-.55-46.88-5.85-61.74-15.28-61.74-15.28-18.21-3.06-31.75-13.02-31.75-13.02-37.78-2.55-89.1-73.53-89.1-73.53,0,0,.76,20.94-4.19,20.68-4.95-.25-6.03-1.28-8.83-1.28s-3.07,8.17-3.07,8.17c-13.79-7.91-25.02-30.89-25.02-30.89,2.81,30.64-18.13,45.45-18.13,45.45-3.09,1.06,61.45,61.4,173.96,98.31,0,0-18.21,5.86-35.91,5.18,0,0,24.17,7.49,65.7,3.4,0,0-.34,5.28-2.56,5.96-.19.06-.24.13-.17.2.81.77,15.9,2.04,29.28-3.1,14.4-5.52-9.42,10.7-10.19,11.23.9-.2,29.68-6.83,35.21-9.01,5.62-2.22-5.79,8.51-26.38,13.78,0,0,7.15,6.16,7.15,13.04s12.59,5.69,12.59,5.69c0,0,4.77,3.4-4.76,7.49,0,0,3.93,14.49,14.47,7.59,0,0,1.26,1.21,1.58,3.42.24,1.66-.06,3.89-1.84,6.6,0,0-18.02,8.91-25,3.75-.08-.06-.15-.12-.22-.18-.72-.61-1.43-1.29-2.1-2.04-.09-.09-.17-.19-.25-.29-4.32-5.54-4.08-13.59-4.08-13.59l-.06-.03c-.73-.36-7.88-4.12-13.86-13.35-.01,0-.01-.01-.01-.01-1.38-2.89-1.89-5.05-1.89-5.05-.29.06-.57.12-.86.18h-.02s-.03,0-.05,0c-1.39.04-22.91.72-43.52-5.6h-.01c-6.4-2.92-10.11-5.67-10.11-5.67v-.16Z"/>
      <path class="cls-25" d="m355.04,288l9.18,5.77s8.17,3.06,14.93.25c0,0,28.79-18.25,18.77-26.81-14.01-11.96-37.8,14.44-42.88,20.79Zm114.01,96.69c21.41,47.28,60.92,74.8,89.02,89.23,3.29,1.69,6.43,3.2,9.36,4.54,2.25,1.04,4.38,1.97,6.37,2.8,10.07,4.24,16.5,6.04,16.5,6.04,1.19.17,2.36.35,3.53.53.06.01.13.03.19.03.35.08.71.14,1.08.18,15.53,2.57,29.45,6.66,41.77,11.56,8.95,3.55,17.06,7.54,24.34,11.67,0,0,43.01,36.89,42.52,42.5-17.12-7.66-47-16.54-47.46-16.67.43.58,16.66,22.42,10.99,22.42-.39,0-.87-.1-1.47-.31-9.53-3.4-22.3-2.72-22.3-2.72,0,0,20.6,25.53,10.22,27.74-10.39,2.22-37.62-2.04-37.62-2.04,10.04,8.17,31.49,50.38,17.53,35.75-13.74-14.41-33.25-26.52-33.86-26.89.52.61,18.5,21.57,15.48,30.46-3.07,9.02-54.47-5.11-54.47-5.11,3.27,7.12,18.58,19.01,27.91,25.81.89.65,1.73,1.25,2.5,1.8,1.28.91,2.36,1.67,3.17,2.23,1.05.73,1.65,1.14,1.65,1.14-31.83,1.19-58.89-12.93-58.89-12.93,4.15,8.89,19.46,21.02,27.82,27.18.14.11.29.22.45.34,3.07,2.26,5.09,3.63,5.09,3.63-83.84-14.43-99.06-55.15-119.83-61.28-12.97-3.83-28.72-20.61-38.7-32.65-4.87-5.87-8.37-10.62-9.51-12.19-4.65-3.81-7.93-9.32-10.6-14.84-4.92-10.17-6.07-22.04-12.06-31.64-2.94,10.79.9,21.59,3.32,32.05-30.32-27.05-68.32-49.05-82.32-88.05-7-20-7-40-11-61,0-.32-.01-.64-.03-.95-.06-1.29-.24-2.51-.46-3.7h-.08s-3.2-13.6-3.2-13.6l2.9,3.72c1.87,3.43,4.3,6.66,7.44,9.52,4.18,3.82,9.62,6.98,16.67,9.14,2.95.9,6.18,1.63,9.72,2.15,2.4.35,4.71.49,6.92.43h.01l.09.02.07-.02c5.67-.17,10.74-1.64,15.18-4.15l2.75-.75,1.66-2.22c5.35-4.24,9.62-10.17,12.8-17.16,3.27-7.17,5.4-15.47,6.38-24.24v-.02l.02-.07c.36-.03.52-2.04.44-5.34.85-14.5-1.33-29.9-6.54-43.38-2.2-7.4-4.97-13.44-8.38-16.08-.01-.01-.03-.02-.04-.03-7.88-6.08-26.96-13.12-37.68-16.79-4.59-1.57-7.65-2.53-7.65-2.53l.88-1.29,5.17-7.57s-6.3-17.45-27.91-17.45c0,0-19.41,2.55-19.41-10.21l3.09-1.48,22.88-10.91h0c11.43-30.24,47.64-30.42,47.64-30.42,17.6.25,34.41,9.9,49.03,22.74h.01c29.8,26.16,50.53,65.54,50.53,65.54l33.42,83.22c-.24-.28-.09.19.8,1.97l2.29,5.71c.6.58.89.69.95.5,21.33,39.68,35.62,48.09,38.39,49.34h-.02c-20.94,1.17-46.68-33.88-47.46-34.95Zm42.38,141.56c.1.03.2.07.3.11.21.08.45.17.7.26-.12-1-.28-6.36-1.46-8.5-.33-.61-.75-.96-1.27-.88-2.75.45-.24,6.16,1.7,8.48-1.3-.59-3.02-.68.03.53Zm-79.17-48.4c-.02,1.26-.07,11.42,2.19,10.34,1.78-.86-1.69-8.97-2.19-10.34Zm-20.94,27.06c.26,2.14,1.14,4.18,2.45,5.89-.2-.89-.51-1.74-.87-2.57-.46-1.13-1.03-2.22-1.58-3.32Zm.07,55.3c-.09-2.1-.55-4.23-2.22-4.44-1.79-.22-2.52,2.09-2.36,3.52.15,1.39,1.05,2.57,2.2,3.42-.14-.01-.28-.01-.42,0,.82.56,1.77.94,2.73,1.18.02-.78.13-2.22.07-3.68Zm-55.03-324.19c0-9.48-7.69-17.17-17.17-17.17s-17.17,7.69-17.17,17.17,7.69,17.17,17.17,17.17,17.17-7.69,17.17-17.17Z"/>
      <path class="cls-15" d="m698.21,522.11l-18.95.77h-.01c-5.3-3.85-11.31-7.79-18.04-11.61-7.28-4.13-15.39-8.12-24.34-11.67,14.76-1.07,28.42-1.19,41.05-.49h.09c1.92.12,3.81.28,5.68.45l-.2,2.34c-4.68-.4-7.49.25-8.17,1.48-2.72,4.94,22.89,18.73,22.89,18.73Z"/>
      <path class="cls-20" d="m686.12,261.03c.45-.41,1-.82,1.64-1.23-.88.66-1.45,1.09-1.64,1.23Z"/>
      <path class="cls-25" d="m623.01,815.26c-4.67,2.29-1.39,2.48,5.7.25h.01c6.38-.18,13.8-2.02,18.98-8.35,2.71-1.52,5.48-3.21,8.24-5.1l.74,1.07c4.35,27.57-14.04,28.34-14.04,28.34,0,0,4.34,4.34-6.64,11.49-1.74,1.14-3.5,1.82-5.22,2.15-9.11,1.79-17.24-5.98-17.24-5.98l-2.69,3.69-1.4,1.92c-9.45-.76-18.13-14.8-18.13-14.8,0,0-5.95-1.05-11.21-5.45,6.98,5.16,25-3.75,25-3.75,1.78-2.71,2.08-4.94,1.84-6.6-.32-2.21-1.58-3.42-1.58-3.42-10.54,6.9-14.47-7.59-14.47-7.59,9.53-4.09,4.76-7.49,4.76-7.49,0,0-12.59,1.19-12.59-5.69s-7.15-13.04-7.15-13.04c20.59-5.27,32-16,26.38-13.78-5.53,2.18-34.31,8.81-35.21,9.01.77-.53,24.59-16.75,10.19-11.23-13.38,5.14-28.47,3.87-29.28,3.1-.07-.07-.02-.14.17-.2,2.22-.68,2.56-5.96,2.56-5.96-41.53,4.09-65.7-3.4-65.7-3.4,17.7.68,35.91-5.18,35.91-5.18-112.51-36.91-177.05-97.25-173.96-98.31,0,0,20.94-14.81,18.13-45.45,0,0,11.23,22.98,25.02,30.89,0,0,.26-8.17,3.07-8.17s3.88,1.03,8.83,1.28c4.95.26,4.19-20.68,4.19-20.68,0,0,51.32,70.98,89.1,73.53,0,0,13.54,9.96,31.75,13.02,0,0,14.86,9.43,61.74,15.28,1.51.18,3.06.37,4.64.55,0,0-3.74,7.56,5.28,11.69,0,0,12.93-1.99,26.38,4.31,0,0,.22-.1.61-.24,2-.71,8.48-2.41,13.18,3.14,0,0,6.64.68,8.68-4.26s12.25-5.79,13.28,7.06c0,0-.21,5.2,3.04,6.05,0,0-1.34,6.3.87,9.02s-.68,17.7-11.74,19.91c0,0-2.9-1.51-1.03-18.62,0,0-9.19,22.54-30.46,29.6,0,0,0,2.47,12.76.77,0,0,5.02,27.65-11.27,35.61,0,0-.01,0-.01.01h-.01Z"/>
      <path class="cls-19" d="m623.6,682.12c7.42,7.25,13.79,11.69,18.62,14.39l4.89,4.38s-.02,0-.06.01c-9.5.44-18.66.49-27.49.19-35.62-1.69-99.64-11.37-154.71-55.08-.06-.04-.12-.09-.18-.15-.16-.12-.31-.25-.47-.38-11.68-9.69-23.14-20.99-34.11-34.14,9.6,6.88,86.75,61.71,111.19,63.87,0,0,5.87,1.31,9.7-1.39,3.83-2.69,11.49-2.06,40.6,1.71,0,0-17.68-7.41-26.2-13.56-.16-.12-.31-.23-.45-.34-7.23-5.84,14.49-6.22,32.78,3.97,0,0,7.66,2.72,5.36-1.37-2.01-3.56,38.16,21.32,55.12,26.9l-20-3.73c-8.71-2.55-14.26-5.13-14.59-5.28Z"/>
      <path class="cls-14" d="m636.87,439.04c9.35-3.57-26.06,15.32-26.74,22.3-.67,6.89,20.71-9.52,21.27-9.94l-23.31,24.24-16.32,3.2-10.6,2.07h-.01l-2.24.44s-.01.01-.02,0l6.16-6.38c1.88-1.5,3.88-3.41,6.01-5.8,1.43-1.6,2.9-3.28,4.43-5.02,1.24-.83,32.21-21.6,41.37-25.11Z"/>
      <path class="cls-24" d="m621.87,374.36c-.01,1.5-.01,3.04-.01,4.6,0,0-.03-.5-.04-1.45,0-.76,0-1.82.05-3.15Z"/>
      <path class="cls-12" d="m620.6,435.86c-.2.68-.4,1.37-.6,2.06l-19.52,20.51c6.02-6.93,12.72-14.62,20.12-22.57Z"/>
      <path class="cls-21" d="m624.5,482.68c-7.28,2.44-14.61,4.44-20.86,5.22h-.01l-21.52-6.69c5.64-.39,13.79-1.53,23.28-4.64-1.43,2.35,10.49,4.72,19.11,6.11Z"/>
      <path class="cls-21" d="m591.77,478.84l14.11-2.76c-.23.16-.4.33-.49.49-9.49,3.11-17.64,4.25-23.28,4.64l-.94-.3,10.6-2.07Z"/>
      <path class="cls-14" d="m595.46,464.18s.01-.01.04-.03c-1.53,1.74-3,3.42-4.43,5.02-2.13,2.39-4.13,4.3-6.01,5.8l10.4-10.79Z"/>
      <path class="cls-26" d="m565.38,661.97c8.52,6.15,26.2,13.56,26.2,13.56-29.11-3.77-36.77-4.4-40.6-1.71-3.83,2.7-9.7,1.39-9.7,1.39-24.44-2.16-101.59-56.99-111.19-63.87,0,0,0-.01-.01-.01-4.01-4.82-7.96-9.88-11.83-15.21-.01-.02-.02-.03-.03-.05l-10.67-16.8-.17-.27c-.91-1.52-1.44-2.35-1.63-2.35l6.19-4.98c9.98,12.04,25.73,28.82,38.7,32.65,20.77,6.13,35.99,46.85,119.83,61.28,0,0-2.02-1.37-5.09-3.63Z"/>
      <path class="cls-14" d="m578.92,481.35h-.03s.01,0,.01,0t.02,0Z"/>
      <path class="cls-11" d="m495.06,841.3c-.27-.91-5.9-20.13-2.16-34.09,0,0,16.34,4.22,18.64,2.3,2.29-1.91-3.2-6.38-3.2-6.38,0,0,10.6.25,11.37,4.72.36,2.09.75,6.79,2.4,11.71,1.88,5.6,5.41,11.49,12.4,14.21,13.15,5.1,12.73-13.92,1.26-16.22,0,0,24.4,1.94,24.59-20.92,1.28,2.32,3.08,4.91,5.55,7.16h0s0,0,0,0c1.4,12.23-14.89,19.74-14.89,19.74-1.54,16.7-12.28,25.55-19.69,30.14-2.16,1.35-4.64,1.14-7.05.17-5.84-2.34-11.33-9.11-11.33-9.11,0,0-1.3,1.46-2.89,2.84-1.68,1.47-3.69,2.85-4.77,2.27-4.55-2.43-7.84-5.49-10.22-8.52-.61-.78-1.16-1.56-1.65-2.32.92,1.32,1.53,2.14,1.65,2.29Z"/>
      <path class="cls-16" d="m477.87,798.8c-19.85-13.35-15.43-25.52-15.43-25.52h0c11.48,2.59,23.47,4.38,35.95,5.18,4.66,2.53,9.7,4.52,14.79,6.08h.01c9.6,4.38,25.25,9.14,43.52,5.6.02,0,.03,0,.05,0l.24.43c.58,1.17,1.2,2.27,1.83,3.31v.02s1.53,2.74,1.53,2.74c-.19,22.86-24.59,20.92-24.59,20.92,11.47,2.3,11.89,21.32-1.26,16.22-6.99-2.72-10.52-8.61-12.4-14.21-1.65-4.92-2.04-9.62-2.4-11.71-.77-4.47-11.37-4.72-11.37-4.72,0,0,5.49,4.47,3.2,6.38-2.3,1.92-18.64-2.3-18.64-2.3-3.74,13.96,1.89,33.18,2.16,34.09-.12-.15-.73-.97-1.65-2.29-.02-.02-.03-.04-.05-.06-3.44-5.37-4.16-10.04-4.16-10.04,0,0-2.88-1.94-5.79-5.84-2.15-3.96-4.12-8.11-5.39-11.92,0-.01-.01-.01-.01-.02-.75-3.56-.93-7.67-.14-12.33Z"/>
      <path class="cls-22" d="m524.27,853.85l-3.37,19.8c-17.56,14.35-17.21-.96-17.21-.96l6.36-25.11c1.59-1.38,2.89-2.84,2.89-2.84,0,0,5.49,6.77,11.33,9.11Z"/>
      <path class="cls-5" d="m439.24,125.68c1.36,41.19-16.34,51.58-16.34,51.58-.17,8.17,14.81,11.91,14.81,11.91-8.94,22.75-46.8,24.16-47.56,24.19h-.01c-14.62-12.84-31.43-22.49-49.03-22.74,0,0-36.21.18-47.64,30.42h0l-22.88,10.91c-43.94-26.78,0-80.23,0-80.23l8.32,7.83c26.91-34.27,22.14-48.51,21.97-49.01,16.84,18.2,15.81,29.61,15.81,29.61,53.96-52.6,52.43-59.92,52.43-59.92,9.36.51,0,49.03,0,49.03,41.02-47.49,39.15-53.45,39.15-53.45,12.25,4.76,8.68,56.68,8.68,56.68,11.92-2.55,22.3-6.81,22.3-6.81Z"/>
      <path class="cls-23" d="m360.01,585.39l-10.12,44.94s0,.03,0,.03l-11.75-8-6.41-5.31c-13.03-15.86-19.95-39.32-20.14-39.79-.05,9.98,2.94,19.99,6.87,28.8,7.21,16.18,17.58,28.33,18.15,28.9l-21-6.84s-.04-.02-.05-.03l-18.45-19.04c-4.31-7.67-5.53-14.02-5.61-14.09.49,8.75,2,16.24,4.04,22.59l.13,3.54,2.77,4.07c4.25,9.55,9.47,15.66,12.9,18.97l1.87,2.74h-.01l-12.9-4.72h-.02s-14.38-11.72-14.38-11.72c-21.56-24.64-23.84-66.54-23.84-66.54-3.27,31.13,13.61,63.84,21.95,77.88,0,0,.05.08.15.25.03.05.06.1.1.16.17.31.35.6.52.88l1.06,2.28,1.82,2.3c.44.68.71,1.08.78,1.19-108.17-105.87-7.92-255.3-7.92-255.3,2.84.57,5.91,1.08,9.23,1.52.02.31.03.63.03.95,4,21,4,41,11,61,14,39,52,61,82.32,88.05-2.42-10.46-6.26-21.26-3.32-32.05,5.99,9.6,7.14,21.47,12.06,31.64,2.67,5.52,5.95,11.03,10.6,14.84,1.14,1.57,4.64,6.32,9.51,12.19l-6.19,4.98s-.03,0-.04.01c.2,2.96.19,5.48.04,7.62h0s-3.45,11.19-3.45,11.19l-2.92-2.67-.12-.11c-.95-.96-1.79-1.92-2.55-2.86.43,5.84.2,12.3-.19,17.68l-2.07,11.21c-.6-.4-1.2-.81-1.78-1.23l-26.53-28.7-5.54-6-.59,2.6Z"/>
      <path class="cls-5" d="m397.92,267.21c10.02,8.56-18.77,26.81-18.77,26.81-6.76,2.81-14.93-.25-14.93-.25l-9.18-5.77c5.08-6.35,28.87-32.75,42.88-20.79Z"/>
      <path class="cls-5" d="m316.41,272.48c10.72,3.67,29.8,10.71,37.68,16.79-.04.08-.02.09.04.03,3.35,4.86,6.15,10.29,8.38,16.08,4.28,14.46,6.32,34.08,6.54,43.38-.1,1.82-.25,3.62-.46,5.41v.02l-6.38,24.24-12.8,17.16c-1.39,1.11-2.86,2.11-4.41,2.97l-15.18,4.15c-.05,0-.1.01-.16,0h-.01l-16.64-2.58-16.67-9.14-7.44-9.52c-1.82-3.36-3.1-6.92-3.98-10.53l-.3-2.43-.44-27.1.6-4.23,5.65-20.95h0c2.64-6.78,5.46-13.92,6.7-22.07.09-.53.16-1.06.22-1.59l1.03-7.42,10.3-15.09.02-.03.06-.08s3.06.96,7.65,2.53Z"/>
      <path class="cls-7" d="m339.19,218.85c9.48,0,17.17,7.69,17.17,17.17s-7.69,17.17-17.17,17.17-17.17-7.69-17.17-17.17,7.69-17.17,17.17-17.17Zm11.56,17.17c0-6.38-5.18-11.56-11.56-11.56s-11.56,5.18-11.56,11.56,5.17,11.56,11.56,11.56,11.56-5.17,11.56-11.56Z"/>
      <path class="cls-2" d="m339.19,224.46c6.38,0,11.56,5.18,11.56,11.56s-5.18,11.56-11.56,11.56-11.56-5.17-11.56-11.56,5.17-11.56,11.56-11.56Zm-.95,12.07c0-2.94-1.87-5.32-4.18-5.32s-4.18,2.38-4.18,5.32,1.87,5.32,4.18,5.32,4.18-2.38,4.18-5.32Z"/>
      <ellipse class="cls-10" cx="334.06" cy="236.53" rx="4.18" ry="5.32"/>
      <path class="cls-5" d="m286,377.75l3.2,13.61-2.13,2.17c-5.18-.16-9.72-.76-13.7-1.7-4.05-1.13-7.52-2.43-10.48-3.86-.04-.02-.07-.03-.1-.05-16.39-8.8-17.91-25.88-18.79-36.89v-.02c.43-4.66,1.86-10.16,3.9-16.02,6.37-16.51,18.79-38.8,24.28-48.37,1.37-2.1,2.51-3.7,3.33-4.69l7.7-.19h0v.07l.96,59.34c-.07.55-.13,1.11-.2,1.68l-1.34,9.53.6,4.91c.09,4.05.49,8.27,1.4,12.44l.04,2.44.81,3.45.22,1.78.29.37Z"/>
      <path class="cls-8" d="m239.62,263s23.49-14.81,25.28-11.11c0,0-28.5,13.71-34.42,33.54h-.02s-5.39,1.78-5.39,1.78c-.03-1.9.05-3.73.22-5.51,0-.02,0-.04,0-.06.81-3.91,2.02-9.14,3.47-13.65.01-.02.02-.03.02-.04,1.46-3.46,3.29-6.63,5.34-9.53l5.49,4.58Z"/>
      <path class="cls-8" d="m234.13,258.42c-2.05,2.9-3.88,6.07-5.34,9.53,1.56-4.83,3.4-8.84,5.34-9.53Z"/>
      <path class="cls-8" d="m225.29,281.7c-.17,1.78-.25,3.61-.22,5.51l-.9.3s.41-2.39,1.12-5.81Z"/>
    </g>
    <g>
      <path class="cls-28" d="m640.46,380.32c-7.06,16.12-13.73,34.54-19.86,55.54-.2.68-.4,1.37-.6,2.06"/>
      <path class="cls-28" d="m893.29,391.97c-8.04-16.4-23.98-166-144.5-149.52,0,0,58.79,13.27,83.3,51.57,0,0-117.5-82.89-191.6,86.24"/>
      <path class="cls-27" d="m715.05,560.71c-1.26-1.92-5.57-4.36-11.32-6.94"/>
      <path class="cls-27" d="m599.76,591.05h-.01"/>
      <path class="cls-27" d="m426.53,564.17c-.26-.37-.4-.56-.4-.56"/>
      <path class="cls-29" d="m638.15,418.05s33.09-95.26,105.6-115.69"/>
      <path class="cls-29" d="m778.47,307.81s52.43,19.74,65.7,72.51"/>
      <path class="cls-29" d="m621.88,319.38s-3.41-85.78,92.93-134.12"/>
      <path class="cls-29" d="m734.9,405.17s34.41,9.91,54.82,45.63"/>
      <path class="cls-29" d="m711.75,418.05s34.4-5.43,50.56,14.33"/>
      <path class="cls-29" d="m271.92,446.51s-19.92,32.36-15.83,60.45"/>
      <path class="cls-29" d="m284,476.73s-6.82,23.59,0,30.23"/>
      <path class="cls-29" d="m266.83,506.96s3.52,19.4-3.1,38.3"/>
      <path class="cls-29" d="m318.39,528.91s2.04,20.18,16.34,30.01"/>
      <path class="cls-29" d="m271.92,583.55s3.06,20.43,15.32,35.75"/>
      <path class="cls-29" d="m338.13,586.11s1.36,12.93,8.85,20.93"/>
      <path class="cls-29" d="m451.66,533s6.64,15.06,17.88,19.66"/>
      <path class="cls-29" d="m336.77,450.28s-.42,26.81,15.11,44.68"/>
      <path class="cls-29" d="m418.22,419.64s-7.41,29.62-2.05,66.89"/>
      <path class="cls-29" d="m356.43,447.98s2.3,24,10.98,39.57"/>
      <path class="cls-29" d="m431.24,370.11s16.59,37.51,12.51,52.71"/>
      <path class="cls-29" d="m444.4,341.28s22.58,54.1,32.28,94.44"/>
      <path class="cls-29" d="m505.79,480.91s20.43,7.66,26.55,5.62"/>
      <path class="cls-28" d="m597.71,461.34c-2.15-30.6-2.22-141.84,1.36-152.51,0,0,6.22-64.29,54.3-105.19,102.63-87.32,191.49,3.57,191.49,3.57,0,0-21.62-7.49-26.9-2.04,0,0,95.83,66.38,82.04,164.94-2.93,20.95-4.53,26.28-6.7,21.88h0"/>
      <path class="cls-29" d="m624.5,482.68c.77-.26,1.55-.53,2.32-.8,16.98-5.92,32.93-13.84,32.93-13.84"/>
      <path class="cls-29" d="m595.1,488.04c2.46.34,5.35.26,8.53-.14"/>
      <line class="cls-29" x1="603.64" y1="487.9" x2="603.63" y2="487.9"/>
      <path class="cls-28" d="m764.51,451.81s.1.02.29.07c4.78,1.26,65.92,19.21,69.51,116.36"/>
      <path class="cls-27" d="m791.61,473.43s-.01,0-.02-.01c-1.11-.73-48.9-31.57-109.97-10.21,0,0,2.55-3.4,6.21-5.61,0,0-17.44,2.75-61.19,23.76,0,0,64.6-63.45,136.33-27.66,9.46,4.72,19.04,11.17,28.62,19.72"/>
      <path class="cls-27" d="m759.76,535.56c.45.29,14.82,9.74,16.33,12.25,0,0-3.74-12.37-44.21-38.34"/>
      <path class="cls-27" d="m683.49,501.9c14.02,1.2,44.78,11.83,85.11,44.38l-8.84-10.72h-.01"/>
      <path class="cls-28" d="m679.26,522.88l18.95-.77s-25.61-13.79-22.89-18.73c.68-1.23,3.49-1.88,8.17-1.48"/>
      <path class="cls-29" d="m778.31,554.45s35.85,19.36,37.83,100.57"/>
      <path class="cls-27" d="m808.23,636.05c-.45-.72-2.91-4.65-7.04-10.48-14.51-20.52-49.65-64.53-89.95-74.38-.65-.16-1.31-.31-1.96-.45"/>
      <path class="cls-27" d="m732.91,537.1c1.45.92,76.1,48.53,75.39,99.07h-.01"/>
      <path class="cls-28" d="m732.89,537.09h.02"/>
      <path class="cls-28" d="m698.22,538.71c.62-.04,24.4-1.27,58.1,25.18,0,0-2.62-9.69-23.41-26.79"/>
      <path class="cls-27" d="m715.98,562.62c.35-.07,9.28-1.22,60.11,45.44,0,0-29.1-43.94-64.85-56.86l4.68,11.3"/>
      <path class="cls-27" d="m779.91,682.16c-.91-2.08-30.09-68.7-49.69-79.48"/>
      <path class="cls-27" d="m723.42,581.08s46.99,32.3,56.51,101.13"/>
      <path class="cls-29" d="m675.32,563.13s39.32,39.13,46.73,69.35"/>
      <path class="cls-27" d="m663.86,692.2c-.69.08-1.58-.01-2.64-.23-.89-.18-1.91-.47-3.03-.84l5.71,1.07"/>
      <path class="cls-29" d="m366.39,648.83s10.21,21.53,28.47,23.06"/>
      <path class="cls-29" d="m400.6,684.91s17.87,12.52,31.91,9.2"/>
      <path class="cls-29" d="m422.3,679.04s14.04,4.34,21.45,2.56"/>
      <path class="cls-29" d="m504.51,741.47s20.13,3.19,29.28-2.43"/>
      <path class="cls-29" d="m557.64,746.57s32.53-2.55,36.87-15.19"/>
      <path class="cls-29" d="m543.96,714.02c1.02,0,23.11,1.15,29.87-3.7"/>
      <path class="cls-29" d="m561.2,730.49s11.87,2.04,16.85-1.92"/>
      <path class="cls-29" d="m598.98,737.89s22.46-.26,26.74-10.92"/>
      <path class="cls-29" d="m596.81,777.85s21.58-2.3,25.53-16.85"/>
      <path class="cls-29" d="m523.28,805.17s-1.63,7.81-1.17,14.39c.28,3.99,1.33,7.53,3.98,8.59"/>
      <path class="cls-29" d="m315.58,271.3s.3.45.83,1.18c2.59,3.61,10.64,14.2,15.51,13.88"/>
      <path class="cls-29" d="m270.51,262.36s37.54-2.98,39.13,6.3"/>
      <path class="cls-29" d="m283.22,268.66s21.51-.68,24.06,2.64"/>
      <path class="cls-29" d="m355.79,216.53s-25.53-18.38-40.98,12.13"/>
      <path class="cls-29" d="m313.66,240.66s4.96,23.98,31.52,21.24"/>
      <path class="cls-29" d="m362.51,305.38c4.28,14.46,6.32,34.08,6.54,43.38"/>
      <polyline class="cls-29" points="290.43 316.22 297.13 294.16 297.35 292.57 298.38 285.15 298.73 282.66 308.68 270.06"/>
      <polyline class="cls-29" points="286 377.75 285.71 377.38 285.49 375.6 284.92 370.94 284.62 368.51 283.24 357.27 282.64 352.36 283.98 342.83 284.18 341.41 284.78 337.18 290.43 316.23"/>
      <polyline class="cls-29" points="329.65 402.71 313.01 400.13 296.34 390.99 288.9 381.47"/>
      <line class="cls-29" x1="345" y1="398.56" x2="329.82" y2="402.71"/>
      <polyline class="cls-29" points="368.59 354.19 362.21 378.43 349.41 395.59"/>
      <polyline class="cls-29" points="283.22 281.81 284.18 341.15 284.18 341.41 284.62 368.51 284.64 369.71 284.68 372.15 285.49 375.6 286 377.75"/>
      <path class="cls-29" d="m244,351.01c-.28-3.56,1.31-9.31,3.9-16.02,6.37-16.51,18.79-38.8,24.28-48.37,1.69-2.94,2.72-4.68,2.72-4.68h.61s7.7-.2,7.7-.2"/>
      <path class="cls-29" d="m262.79,387.92c-16.39-8.8-17.91-25.88-18.79-36.89"/>
      <path class="cls-29" d="m273.37,391.83c-4.04-.96-7.51-2.27-10.48-3.86"/>
      <path class="cls-28" d="m308.76,269.95l-.06.08-.02.03-10.3,15.09-.59.87c-2.59-1.91-8.17-3.3-14.57-4.28h0c-2.06-.31-4.2-.58-6.35-.81-.12-.01-.25-.03-.37-.04-7.79-.81-15.71-1.1-20.4-1-12.33.26-20.71,3.13-25.61,5.54h-.02c-3.63,1.79-5.35,3.31-5.35,3.31-.02-.51-.04-1.02-.04-1.53-.03-1.9.05-3.73.22-5.51,0-.02,0-.04,0-.06.49-4.97,1.72-9.52,3.47-13.65.01-.02.02-.03.02-.04,1.46-3.46,3.29-6.63,5.34-9.53,12.46-17.57,33.36-24.99,33.36-24.99"/>
      <path class="cls-28" d="m300.87,110.54c16.84,18.2,15.81,29.61,15.81,29.61,53.96-52.6,52.43-59.92,52.43-59.92,9.36.51,0,49.03,0,49.03,41.02-47.49,39.15-53.45,39.15-53.45,12.25,4.76,8.68,56.68,8.68,56.68,11.92-2.55,22.3-6.81,22.3-6.81,1.36,41.19-16.34,51.58-16.34,51.58-.17,8.17,14.81,11.91,14.81,11.91-8.94,22.75-46.8,24.16-47.56,24.19"/>
      <path class="cls-28" d="m300.86,110.53h.01c.17.51,4.94,14.75-21.97,49.02l-8.32-7.83s-43.94,53.45,0,80.23"/>
      <path class="cls-28" d="m353.24,286.87l1.8,1.13c-.53.67-.86,1.12-.95,1.27-.04.08-.02.09.04.03,3.35,4.86,6.15,10.29,8.38,16.08"/>
      <path class="cls-28" d="m369.05,348.76c-.1,1.82-.25,3.62-.46,5.41"/>
      <path class="cls-28" d="m349.41,395.59c-1.39,1.11-2.86,2.11-4.41,2.97"/>
      <path class="cls-28" d="m329.82,402.71c-.05,0-.1.01-.16,0"/>
      <path class="cls-28" d="m290.43,316.22c2.64-6.77,5.46-13.91,6.7-22.06.09-.53.16-1.06.22-1.59.27-2.11.43-4.29.44-6.55"/>
      <line class="cls-29" x1="290.43" y1="316.23" x2="290.43" y2="316.22"/>
      <path class="cls-28" d="m288.9,381.47c-1.82-3.36-3.1-6.92-3.98-10.53-.1-.41-.19-.82-.28-1.23-.91-4.17-1.31-8.39-1.4-12.44-.12-5.25.28-10.23.74-14.44.07-.57.13-1.13.2-1.68.28-2.44.57-4.57.76-6.28.69-6.23,3.01-12.26,5.49-18.64"/>
      <path class="cls-28" d="m489.71,469.43c10.69,14.32,17.7,31.2,21.26,48.69.58,2.82,1.06,5.66,1.46,8.5-.04-.35-.5-.67-1.03-.9.38.45.74.77,1.03.9"/>
      <path class="cls-28" d="m402.43,559.48c2.52,2.05,5.44,3.62,8.89,4.41-.55-.76-1.41-1.15-2.31-1.18.71.54,1.53.94,2.31,1.18.03-1.23.05-2.45.07-3.68.37-18.43.34-36.87-.07-55.3.54,1.1,1.07,2.21,1.58,3.32,6.57,13.98,11.8,28.83,21.87,40.77-1.97-23.66-2.99-47.41-2.51-71.15,8.47,18.12,14.47,40.13,33.19,50.55-7.27-16.77-10.46-35.4-8.42-53.61,10.6,23.88,30.2,42.69,54.4,51.46"/>
      <path class="cls-28" d="m383.09,545.05c-.15-.27-.3-.55-.44-.84"/>
      <path class="cls-28" d="m289.74,395.05c-.06-1.29-.24-2.51-.46-3.7-.54-3.04-1.31-5.85-.89-8.93"/>
      <path class="cls-28" d="m283.22,281.74v.07c1.21,15.9,1.47,31.83,1.99,47.75"/>
      <path class="cls-28" d="m289.81,395.06s-.05-.01-.07-.01"/>
      <path class="cls-28" d="m244,351.01c.43-4.66,1.86-10.16,3.9-16.02,6.14-17.66,17.79-38.45,24.28-48.37,1.37-2.1,2.51-3.7,3.33-4.69.42-.52.75-.88.98-1.04.23-.18.35-.16.37.04"/>
      <path class="cls-29" d="m244,351.03v-.02"/>
      <path class="cls-28" d="m273.37,391.83c-4.05-1.13-7.52-2.43-10.48-3.86-.04-.02-.07-.03-.1-.05-16.61-8.02-17.48-20.22-18.8-31.6-.19-1.59-.18-3.37,0-5.29"/>
      <path class="cls-28" d="m411.94,571.67l-6.19,4.98s-.03,0-.04.01c.2,2.96.19,5.48.04,7.62"/>
      <path class="cls-28" d="m287.65,647.64c.44.68.71,1.08.78,1.19-108.17-105.87-7.92-255.3-7.92-255.3"/>
      <path class="cls-28" d="m284.25,642.18c.17.31.35.6.52.88"/>
      <path class="cls-28" d="m285.89,630.43c-21.56-24.64-23.84-66.54-23.84-66.54-3.27,31.13,13.61,63.84,21.95,77.88,0,0,.05.08.15.25"/>
      <path class="cls-28" d="m298.43,625.16c4.25,9.55,9.47,15.66,12.9,18.97"/>
      <path class="cls-28" d="m297.1,609.05c-4.31-7.67-5.53-14.02-5.61-14.09.49,8.75,2,16.24,4.04,22.59"/>
      <path class="cls-28" d="m331.72,617.05c-13.03-15.86-19.95-39.32-20.14-39.79-.05,9.98,2.94,19.99,6.87,28.8,7.21,16.18,17.58,28.33,18.15,28.9"/>
      <path class="cls-28" d="m394.45,618.72c-.6-.4-1.2-.81-1.78-1.23"/>
      <path class="cls-28" d="m399.26,592.69c-.95-.96-1.79-1.92-2.55-2.86.43,5.84.2,12.3-.19,17.68"/>
      <path class="cls-28" d="m349.88,630.36c-6.97-2.02-13.04-7.08-18.16-13.31"/>
      <path class="cls-28" d="m360.6,579.98c-.18,1.84-.37,3.65-.59,5.41-.86,7.26-1.99,13.86-3.18,19.62-3.15,15.29-6.72,24.75-6.94,25.32"/>
      <path class="cls-28" d="m336.6,634.96c-8.46-1.03-15.37-3.54-21-6.84"/>
      <path class="cls-28" d="m315.55,628.09c-9.08-5.31-14.85-12.63-18.45-19.04"/>
      <path class="cls-28" d="m298.43,625.16c-1.04-2.33-2.02-4.86-2.9-7.61"/>
      <path class="cls-28" d="m311.33,644.13c2.12,2.04,3.55,3.02,3.65,3.08-.6-.1-1.19-.21-1.78-.34"/>
      <path class="cls-28" d="m313.19,646.87c-4.72-.98-9.01-2.6-12.9-4.72"/>
      <path class="cls-28" d="m300.27,642.14c-5.55-3.02-10.31-7.06-14.38-11.71"/>
      <path class="cls-28" d="m287.65,647.64c-.64-.98-1.64-2.53-2.88-4.58"/>
      <path class="cls-28" d="m396.71,589.83c0-.17-.02-.33-.03-.49"/>
      <path class="cls-28" d="m396.52,607.51c-.48,6.67-1.19,11.68-1.2,11.79-.29-.19-.58-.38-.87-.58"/>
      <path class="cls-28" d="m392.67,617.49c-11.38-8.1-20.12-18.72-26.53-28.7-11.16-17.38-15.27-32.78-14.05-29.41"/>
      <path class="cls-28" d="m564.93,661.63c-8.36-6.16-23.67-18.29-27.82-27.18,0,0,27.06,14.12,58.89,12.93,0,0-.6-.41-1.65-1.14-.81-.56-1.89-1.32-3.17-2.23-.77-.55-1.61-1.15-2.5-1.8-9.33-6.8-24.64-18.69-27.91-25.81,0,0,51.4,14.13,54.47,5.11,3.02-8.89-14.96-29.85-15.48-30.46.61.37,20.12,12.48,33.86,26.89,13.96,14.63-7.49-27.58-17.53-35.75,0,0,27.23,4.26,37.62,2.04,10.38-2.21-10.22-27.74-10.22-27.74,0,0,12.77-.68,22.3,2.72.6.21,1.08.31,1.47.31,5.67,0-10.56-21.84-10.99-22.42.46.13,30.34,9.01,47.46,16.67.49-5.61-42.52-42.5-42.52-42.5-7.28-4.13-15.39-8.12-24.34-11.67-12.32-4.9-26.24-8.99-41.77-11.56-.37-.04-.73-.1-1.08-.18-.06,0-.13-.02-.19-.03-1.17-.18-2.34-.36-3.53-.53,0,0-6.43-1.8-16.5-6.04-1.99-.83-4.12-1.76-6.37-2.8-2.93-1.34-6.07-2.85-9.36-4.54-28.1-14.43-67.61-41.95-89.02-89.23.78,1.07,26.52,36.12,47.46,34.95h.02c-2.77-1.25-17.06-9.66-38.39-49.34-.06.19-.35.08-.95-.5l-2.29-5.71c-.89-1.78-1.04-2.25-.8-1.97l-33.42-83.22s-20.73-39.38-50.53-65.54h-.01c-14.62-12.84-31.43-22.49-49.03-22.74,0,0-36.21.18-47.64,30.42h0l-22.88,10.91-3.09,1.48c0,12.76,19.41,10.21,19.41,10.21,21.61,0,27.91,17.45,27.91,17.45l-5.17,7.57-.88,1.29s3.06.96,7.65,2.53c10.72,3.67,29.8,10.71,37.68,16.79,0,0,.03.02.04.03,3.41,2.64,6.18,8.68,8.38,16.08,5.21,13.48,7.39,28.88,6.54,43.38.08,3.3-.08,5.31-.44,5.34l-.02.07v.02c-.98,8.77-3.11,17.07-6.38,24.24-3.18,6.99-7.45,12.92-12.8,17.16l-1.66,2.22-2.75.75c-4.44,2.51-9.51,3.98-15.18,4.15l-.07.02-.09-.02"/>
      <path class="cls-28" d="m329.65,402.71c-2.21.06-4.52-.08-6.92-.43-3.54-.52-6.77-1.25-9.72-2.15-7.05-2.16-12.49-5.32-16.67-9.14-3.14-2.86-5.57-6.09-7.44-9.52l-2.9-3.72,3.2,13.61-2.13,2.17c-5.18-.16-9.72-.76-13.7-1.7,2.2.62,4.58,1.18,7.14,1.7,2.84.57,5.91,1.08,9.23,1.52.02.31.03.63.03.95,4,21,4,41,11,61,14,39,52,61,82.32,88.05-2.42-10.46-6.26-21.26-3.32-32.05,5.99,9.6,7.14,21.47,12.06,31.64,2.67,5.52,5.95,11.03,10.6,14.84,1.14,1.57,4.64,6.32,9.51,12.19,9.98,12.04,25.73,28.82,38.7,32.65,20.77,6.13,35.99,46.85,119.83,61.28,0,0-2.02-1.37-5.09-3.63"/>
      <line class="cls-29" x1="329.66" y1="402.71" x2="329.65" y2="402.71"/>
      <circle class="cls-28" cx="339.19" cy="236.02" r="17.17"/>
      <path class="cls-28" d="m379.15,294.02c-6.76,2.81-14.93-.25-14.93-.25l-9.18-5.77c5.08-6.35,28.87-32.75,42.88-20.79,10.02,8.56-18.77,26.81-18.77,26.81Z"/>
      <path class="cls-28" d="m411.32,563.89c-.96-.24-1.91-.62-2.73-1.18.14-.01.28-.01.42,0-1.15-.85-2.05-2.03-2.2-3.42-.16-1.43.57-3.74,2.36-3.52,1.67.21,2.13,2.34,2.22,4.44.06,1.46-.05,2.9-.07,3.68Z"/>
      <path class="cls-28" d="m411.32,504.91c.55,1.1,1.12,2.19,1.58,3.32.36.83.67,1.68.87,2.57-1.31-1.71-2.19-3.75-2.45-5.89Z"/>
      <path class="cls-28" d="m434.45,488.19c-2.26,1.08-2.21-9.08-2.19-10.34.5,1.37,3.97,9.48,2.19,10.34Z"/>
      <path class="cls-28" d="m510.05,847.58c1.59-1.38,2.89-2.84,2.89-2.84,0,0,5.49,6.77,11.33,9.11,2.41.97,4.89,1.18,7.05-.17,7.41-4.59,18.15-13.44,19.69-30.14,0,0,16.29-7.51,14.89-19.74"/>
      <path class="cls-28" d="m478.02,811.15c1.04,5.06,3.22,9.03,5.39,11.92,2.91,3.9,5.79,5.84,5.79,5.84,0,0,.72,4.67,4.16,10.04.02.02.03.04.05.06"/>
      <path class="cls-28" d="m477.87,798.8c-.79,4.66-.61,8.77.14,12.33"/>
      <path class="cls-28" d="m512.43,526.62c-.25-.09-.49-.18-.7-.26-.1-.04-.2-.08-.3-.11-3.05-1.21-1.33-1.12-.03-.53-1.94-2.32-4.45-8.03-1.7-8.48.52-.08.94.27,1.27.88,1.18,2.14,1.34,7.5,1.46,8.5Z"/>
      <path class="cls-28" d="m293.47,221.04c-2.08,5.49-3.34,11.97-3.42,19.62"/>
      <line class="cls-28" x1="474.11" y1="362.13" x2="474.9" y2="364.09"/>
      <path class="cls-28" d="m478.14,370.3c.32-.83-3.34-7.35-4.03-8.17h-.01"/>
      <path class="cls-28" d="m474.9,364.09c.42.84,1,1.98,1.78,3.46.49.93.98,1.85,1.46,2.75"/>
      <path class="cls-28" d="m516.56,419.65c.28.12.43.17.46.17"/>
      <path class="cls-28" d="m517.03,419.82h-.01c-.05-.03-.2-.1-.46-.17-.01,0-.02,0-.03-.01"/>
      <path class="cls-28" d="m469.05,384.69s-.02-.03-.02-.03"/>
      <path class="cls-28" d="m595.1,488.04l-1.08-.18"/>
      <path class="cls-28" d="m737.87,633.34c.08.42.13.64.13.64-.24-.51-.47-1.01-.69-1.5-11.45-24.62-15.12-29.13-15.34-29.39"/>
      <path class="cls-28" d="m661.21,511.27c6.73,3.82,12.74,7.76,18.04,11.61h.01c7.87,5.72,14.18,11.23,18.95,15.83h.01c7.39,7.13,11.06,12.03,11.06,12.03,1.99,2.84,3.92,6.22,5.77,9.97.29.59.58,1.18.87,1.79l.05.12h.01c2.65,5.62,5.15,11.95,7.44,18.46,2.54,7.22,4.82,14.66,6.79,21.59h.01c4.25,15.05,7.02,27.71,7.65,30.66"/>
      <path class="cls-28" d="m658.42,691.65c-7.24-.91-13.8-2.42-19.22-3.96-.34-.1-.68-.19-1.01-.29-8.71-2.55-14.26-5.13-14.59-5.28"/>
      <path class="cls-28" d="m734.35,665.29c2.58,5.21,2.93,7.8,2.93,7.8-3.71-4.42-7.51-8.65-11.35-12.68-35.6-37.37-74.44-57.62-74.44-57.62,39.9,40.96,56.9,74.35,64.06,93.75,3.06,8.32,4.32,14.07,4.79,16.73.2,1.11.26,1.69.26,1.69-2.24-3.07-4.52-6.02-6.82-8.86-42.27-52.14-93.1-66.38-93.1-66.38,13.62,14.47-26.55,2.05-26.55,2.05l2.28,1.71c53.79,39.89,86.23,48.5,86.23,48.5-6.45.71-12.77.69-18.74.22h-.04c-.89-.06-1.77-.14-2.64-.23-.92-.1-1.83-.2-2.73-.31"/>
      <path class="cls-28" d="m721.96,603.08h.01c3.3,8.49,6.03,15.89,8.27,22.27,8,22.79,9.76,32.59,9.76,32.59-8.34-11.75-21.27-15.32-21.27-15.32,8.47,10.06,13.09,17.6,15.61,22.66"/>
      <path class="cls-28" d="m396.71,589.83c-4.86-6.04-5.88-11.09-4.45-8.66"/>
      <path class="cls-28" d="m399.38,592.8c.88.9,1.86,1.8,2.92,2.67,0,0,2.86-2.42,3.45-11.18"/>
      <path class="cls-28" d="m647.11,700.89c1.23-.05,2.45-.12,3.69-.19h.01c.47-.02.94-.05,1.41-.08,0,0-.78-.12-2.24-.6-1.71-.56-4.35-1.6-7.76-3.51-4.83-2.7-11.2-7.14-18.62-14.39t-.02-.01"/>
      <path class="cls-28" d="m485.65,661.39c32.35,20.8,76.09,37.75,133.91,39.7,8.83.3,17.99.25,27.49-.19"/>
      <path class="cls-28" d="m435.13,617.77c12.18,13.93,28.59,29.46,50.04,43.31"/>
      <path class="cls-28" d="m430.73,612.61c.65.79,1.32,1.59,2.02,2.4"/>
      <path class="cls-28" d="m418.25,596.12c3.01,4.36,6.61,9.26,10.86,14.51"/>
      <path class="cls-28" d="m407.55,579.27c1.93,3.21,5.39,9.17,10.67,16.8"/>
      <path class="cls-28" d="m405.75,576.65c.19,0,.72.83,1.63,2.35"/>
      <path class="cls-28" d="m284.7,642.9c-.19-.3-.34-.54-.45-.72-.04-.06-.07-.11-.1-.16"/>
      <path class="cls-28" d="m312.61,679.26c-10.97-12.41-18.88-23.08-23.56-29.84-2.08-3.01-3.53-5.24-4.33-6.49"/>
      <path class="cls-28" d="m399.96,749.72c-15.98-8.57-30.41-18.39-43.23-28.54-17.9-14.17-32.66-28.96-44.09-41.89"/>
      <path class="cls-28" d="m445.78,768.87c-16.38-4.98-31.61-11.54-45.65-19.06"/>
      <path class="cls-28" d="m507.83,778.87c-1.59-.04-3.18-.09-4.75-.16s-3.13-.15-4.69-.25c-12.48-.8-24.47-2.59-35.95-5.19-.3-.07-.61-.14-.91-.21-5.36-1.22-10.59-2.62-15.71-4.18"/>
      <path class="cls-28" d="m454.73,754.45s26.21,21.61,85.27,13.78"/>
      <path class="cls-28" d="m556.78,790.13c.29-.06.57-.12.86-.18,2.25-.47,4.55-1.06,6.87-1.8"/>
      <path class="cls-28" d="m513.19,784.54c9.6,4.38,25.25,9.14,43.52,5.6"/>
      <path class="cls-28" d="m503.07,778.87s3.71,2.75,10.11,5.67"/>
      <path class="cls-28" d="m462.44,773.28s-4.42,12.17,15.43,25.52c3.13,2.11,6.87,4.25,11.33,6.37"/>
      <path class="cls-28" d="m573.46,808.39c1.41.5,2.94.89,4.59,1.12"/>
      <path class="cls-28" d="m559.54,795.01c.24.52.52,1.06.82,1.62,1.28,2.32,3.08,4.91,5.55,7.16h0c1.74,1.61,3.83,3.04,6.3,4.1.39.17.78.33,1.19.47"/>
      <path class="cls-28" d="m557.64,789.95s.51,2.16,1.89,5.05"/>
      <path class="cls-28" d="m580.11,824.49c5.26,4.4,11.21,5.45,11.21,5.45,0,0,8.68,14.04,18.13,14.8l1.4-1.92,2.69-3.69s8.13,7.77,17.24,5.98c1.72-.33,3.48-1.01,5.22-2.15,10.98-7.15,6.64-11.49,6.64-11.49,0,0,18.39-.77,14.04-28.34"/>
      <path class="cls-28" d="m577.79,822.27c.67.75,1.38,1.43,2.1,2.04"/>
      <path class="cls-28" d="m572.21,807.89c.27,6.28,2.48,10.82,5.33,14.09"/>
      <path class="cls-28" d="m649.57,804.53c3.11-5.14,4.98-12.53,4.56-23.1"/>
      <path class="cls-28" d="m628.72,815.51c6.38-.18,13.8-2.02,18.98-8.35.66-.8,1.29-1.68,1.86-2.63"/>
      <path class="cls-28" d="m623.02,815.26c1.72.18,3.65.3,5.69.25"/>
      <path class="cls-28" d="m615.83,813.85s2.94.94,7.18,1.41"/>
      <path class="cls-28" d="m657.71,800.83c-2.5,1.35-5.21,2.59-8.14,3.7h0"/>
      <path class="cls-28" d="m685.79,732.91s1.39,6.79,1.07,16.35c-.24,7.24-1.47,16.08-5.04,24.75-4.15,10.09-11.48,19.95-24.1,26.81"/>
      <path class="cls-28" d="m688.39,749.22c-.5.05-1.01.06-1.53.04"/>
      <path class="cls-28" d="m700.14,741.48c-3.28,4.34-7.16,7.31-11.7,7.73"/>
      <path class="cls-28" d="m713.62,706.86c-2.23,10.14-6.51,25.41-13.46,34.59"/>
      <path class="cls-28" d="m715.55,696.54s-.55,3.89-1.77,9.56c-.05.24-.1.48-.16.73"/>
      <path class="cls-28" d="m725.93,660.41s6.92,39.38-5.59,52.86"/>
      <path class="cls-28" d="m777.73,733.41c-1.03-8.27-4.5-28.63-15.68-55.09-5.76-13.65-13.58-28.92-24.18-44.98h0c-.18-.29-.37-.58-.56-.86"/>
      <path class="cls-28" d="m777.73,733.42c.58,1.82.74,3.19.4,4.01,0,0-.08-1.4-.4-4.01Z"/>
      <path class="cls-28" d="m777.73,733.42h0"/>
      <path class="cls-28" d="m734.34,665.28h.01c.63.87,38.24,51.93,43.38,68.13"/>
      <path class="cls-28" d="m753.96,624.74s15.34,23.5,25.95,57.42c.01.02.01.04.02.05.48,1.52.94,3.06,1.39,4.62,3.25,11.15,5.92,23.32,7.36,36.07,0,0-22.28-49.38-26.63-44.58"/>
      <path class="cls-28" d="m558.07,473.92c2.49-.06,5.43,2.77,9.37,4.53,4.38,1.95,10,2.59,17.62-3.48,1.88-1.5,3.88-3.41,6.01-5.8,1.43-1.6,2.9-3.28,4.43-5.02,1.6-1.84,3.26-3.75,4.98-5.72,6.02-6.93,12.72-14.62,20.12-22.57,5.46-5.86,11.3-11.87,17.55-17.81,14.38-13.7,30.88-27.08,49.68-37.73"/>
      <path class="cls-28" d="m847.02,432.38c-2.76-10.65-5.65-19.96-8.63-27.18,0,0,0-.02-.01-.03-1.56-3.79-3.15-7.01-4.76-9.53"/>
      <path class="cls-28" d="m640.46,380.32l.03-.06c1.42-2.99,52.39-108.88,137.82-85.22,136.74,37.88,96.67,306.39,96.67,306.39,0,0-11.86-107.05-27.96-169.04"/>
      <path class="cls-28" d="m789.73,450.81c1.56,1.37,3.14,2.83,4.75,4.38l.09.09c9.6,9.29,19.91,21.78,29.35,38.4,1.15,2.02,2.17,4.08,3.1,6.19,9.47,21.63,7.71,47.4,7.29,68.37-.14,6.43-.14,12.41.33,17.67.3,3.25.78,6.23,1.53,8.88.15-1.2.3-2.4.44-3.59,1.39-11.56,2.42-22.55,3.09-32.99,3.2-48.65-.96-85.49-9.55-113.34-.08-.26-.16-.52-.25-.77-1.59-5.1-3.34-9.89-5.22-14.39-.18-.47-.38-.92-.57-1.37-8.68-20.29-20.05-34.65-32.38-44.75h-.01c-40.51-33.19-91.38-20.38-91.38-20.38,0,0,7.07-4.58,18.05-9.56,5.86-2.66,12.84-5.43,20.46-7.67.05-.02.1-.03.16-.05,5.91-1.73,12.2-3.15,18.65-3.94.05,0,.1-.02.15-.02,10.3-1.26,20.98-.93,31.13,2.19"/>
      <path class="cls-29" d="m789.72,450.8h.01"/>
      <path class="cls-28" d="m573.8,481.26s1.84.18,5.09.1h.01s0,0,.02-.01c.95-.02,2.01-.06,3.19-.14,5.64-.39,13.79-1.53,23.28-4.64,8.57-2.8,18.23-7.2,28.14-14.09.14-.09.29-.2.44-.3.39-.28.79-.56,1.18-.84,27.86-20.07,73.13-42.29,108.88-35.29,4.87.95,9.57,2.45,14.02,4.57,0,0,1.55.51,4.26,1.76,0,.01.02.01.03.02,5.47,2.52,15.65,8.04,27.38,18.4"/>
      <path class="cls-28" d="m823.07,720.06s.01-.04.03-.11c.01-.06.03-.11.04-.17.2-.88.84-3.77,1.63-8.27,4.67-26.65,14.44-109.66-32.49-163.79-8.5-9.8-18.85-18.66-31.44-26.07-.03-.01-.06-.03-.09-.05-9.19-5.39-19.57-10.02-31.28-13.67-14.9-4.65-31.95-7.72-51.46-8.82h-.09c-12.63-.7-26.29-.58-41.05.49"/>
      <path class="cls-28" d="m787.32,598.87s0,.01.01.01c.01,0,.02.04.05.08.89,1.29,11.2,16.37,20.85,37.09.03.04.04.07.06.11,2.75,5.9,5.44,12.24,7.85,18.86,6.6,18.12,11.06,38.24,8.63,56.49-.37,2.81-.91,5.57-1.63,8.27"/>
      <path class="cls-28" d="m781.32,686.84h0c2.85-4.31,3.62-20.56,3.62-20.56,0,0,23.15,42.55,18.38,88.17,0,0,31.37-52.27-2.13-128.88-3.74-8.58-8.31-17.46-13.81-26.61"/>
      <path class="cls-28" d="m836.43,592.71c.32-.11.37-.63.18-1.51-.26-1.17-.94-2.98-1.97-5.29-9.78-22.08-50.69-89.6-44.42-77.93,5.82,10.84,2.06,39.74,2.06,39.74.09-3.64-.15-7.17-.67-10.6,0,0,0-.03-.01-.04-5.16-34.17-37.64-57.26-37.64-57.26"/>
      <path class="cls-28" d="m481.06,936.92c-8.8,12.12-22.57,23.84-42.33,21.78-39.15-4.08-44.26,7.15-50.73,17.7,0,0,14.3-6.12,21.11-.68"/>
      <path class="cls-28" d="m499.79,888.07l-4.81,18.99-1.44,5.68s-3.84,12.28-12.48,24.17"/>
      <polyline class="cls-28" points="510.05 847.58 503.69 872.69 499.79 888.06"/>
      <polyline class="cls-28" points="519.33 882.94 520.9 873.65 524.27 853.85"/>
      <path class="cls-28" d="m498.59,959.08c-.22.16-1.09.83-2.34,1.9-6.5,5.54-23.26,21.83-12.42,34.49,0,0,6.13-14.3,6.13-9.7s7.15,2.55,7.66-1.2c.51-3.74,22.64-29.1,22.64-29.1,0,0,5.79-8,8.68-4.26,0,0,4.09-3.57-.68-10.89s-15.04,2.55-15.04,2.55c0,0-.62-20.76,1.59-33.36l4.51-26.56"/>
      <path class="cls-28" d="m475.61,959.04s-24.63,10.9-46.41,9.19c-11.28-.88-16.18,3.72-18.27,8.35-1.95,4.32-1.48,8.68-1.48,8.68,0,0,10.21-7.15,19.06-2.39,8.43,4.54,50.76-9.12,67.74-21.89.85-.64,1.63-1.27,2.34-1.9,0-.01.02-.01.03-.02l.02-.02"/>
      <path class="cls-28" d="m630.78,845.11l.43,58.79.37,51.74s23.15-21.11,24.34-8c1.19,13.1,0,14.13,0,14.13,0,0-1.87-6.98-11.58,1.53l-9.7,8.51,29.11,19.4s29.28,4.6,22.64,20.94c0,0-7.15-5.96-8-2.04-.85,3.91-17.36.51-41.36-16.34-24-16.86-60.6,7.66-62.3,6.8-1.7-.85-20.43,11.41-26.05,2.22,0,0,.22-4.77-12.91,5.1,0-.05.01-6.41,3.21-11.42,2.27-3.58,6.2-6.51,12.94-5.94,16.17,1.36,37.45-10.04,37.45-10.04"/>
      <path class="cls-28" d="m610.85,842.82s-.46,25.06-1.83,50.7c-.4,7.48-.88,15.01-1.45,21.98-.9,10.97-2.01,20.54-3.4,26.35-.2.85-.41,1.68-.62,2.48-.62,2.36-1.29,4.51-2.05,6.47-1.7,4.37-3.91,7.83-7.24,10.73-7.87,6.86-22.05,10.62-50.85,15.9,0,0-30.47,1.87-26.21,19.57,0,0,9.53-6.98,11.91-4.94,2.38,2.05.68,3.03,9.87,4.41"/>
      <path class="cls-28" d="m601.5,950.8c-6.08-7.56-12.82-.95-12.82-.95,0,0-5.36,8.21,5.58,11.68"/>
      <path class="cls-28" d="m847.02,432.38h0c.01.39.32,8.79.55,21.11.07,3.82.13,8.03.18,12.49.34,35.11-.5,85.95-8.03,92.23"/>
      <path class="cls-29" d="m743.67,375.72s55.23,10.82,74.12,52.39"/>
      <path class="cls-30" d="m503.69,872.69s-.35,15.31,17.21.96"/>
      <path class="cls-30" d="m499.79,888.06h0c.11.41,3.23,11.75,19.53-5.11h.01"/>
      <path class="cls-30" d="m494.98,907.06s-2.08,11.64,14.58.75"/>
      <path class="cls-30" d="m625.11,866.79s-8.83,11.11-15.14,5.9"/>
      <path class="cls-30" d="m622.56,890.45s-4.78,8.36-13.54,3.07"/>
      <path class="cls-30" d="m631.2,903.9s-22.78,27.45-23.63,11.6"/>
      <path class="cls-30" d="m620.34,936.91s-15.2,11.94-16.79,7.42"/>
      <path class="cls-30" d="m503.69,924.66s-20.11,18.36-22.63,12.26c0,0,.01,0,0-.01"/>
    </g>
  </g>
  <path class="cls-29" d="m394.85,694.67s-49.42-13.9-71.88-63.02"/>
  <path class="cls-29" d="m325.85,658.87s7.09,31.95,36.06,43.67"/>
  <path class="cls-29" d="m418.22,732.91s-26.3-.26-50.81-24.77"/>
  <path class="cls-29" d="m411.32,718.36s33,14.19,45.61,11.43"/>
  <path class="cls-29" d="m443.75,739.04s23.55,7.42,33.61,3.33"/>
  <line class="cls-3" x1="506.13" y1="901.68" x2="517.08" y2="896.18"/>
  <path class="cls-6" d="m412.6,965.06c-.93-.75-1.82-1.54-2.66-2.38-.42-.42-.98-.73-1.21-1.28-.24-.55-.42-1.14-.33-1.94l.16-.12c1.47.26,2.19,1.13,2.66,2.38.57,1.04,1.08,2.12,1.54,3.22,0,0-.16.12-.16.12h0Z"/>
  <path class="cls-6" d="m423.67,963.03c-.98-.63-1.92-1.3-2.82-2.02-.45-.36-1.02-.6-1.3-1.11-.29-.51-.51-1.07-.49-1.86l.15-.14c1.46.09,2.25.84,2.82,2.02.65.95,1.25,1.95,1.79,2.97,0,0-.15.14-.15.14h0Z"/>
  <path class="cls-6" d="m439.85,963.03c-.66-.19-1.3-.42-1.9-.72-.3-.14-.71-.15-.85-.47-.12-.21-.38-1.06,0-1.46.6-.21.98-.16,1.31-.06.34.1.41.5.59.78.19.27.36.56.53.85.15.31.33.6.46.93l-.13.15h0Z"/>
  <path class="cls-6" d="m484.43,961.57c-1.15-1.48-2.5-2.83-3.96-3.97-1.68-1.02-2.93-1.77-4.47-3.16,0,0,.03-.2.03-.2,2.15-.71,4.26.52,5.52,2.18,1.34,1.48,2.37,3.2,3.06,5.05,0,0-.18.09-.18.09h0Z"/>
  <path class="cls-6" d="m501.49,978.23c-2.69-3.02-5.63-5.87-8.56-8.6-.91-.95-1.65-2-2.76-2.76v-.2c3.04-.33,5.28,2.44,6.87,4.61,1.69,2.19,3.23,4.45,4.6,6.83l-.16.12h0Z"/>
  <path class="cls-6" d="m506.03,972.31c-.2-1.72-.47-3.44-.89-5.1-.61-2.3-1.29-4.94-3.22-6.34-2.05-1.3-3.99-.15-6.34.74,0,0-.13-.15-.13-.15,2.54-3.98,7.49-4.51,9.38.33,1.41,3.39,1.58,6.96,1.4,10.53,0,0-.2,0-.2,0h0Z"/>
  <path class="cls-6" d="m507.04,954.27c1.76.82,3.41,1.87,4.85,3.21,1.61,1.22,2.97,3.39,2.06,5.48,0,0-.2.01-.2.01-1.84-2.22-2.82-4.48-4.82-6.53-.62-.7-1.3-1.35-2-2l.11-.17h0Z"/>
  <path class="cls-6" d="m488.76,952.84c-3-.15-5.93-.82-8.82-1.59-2.97-.66-5.79-1.78-8.01-3.99,0,0,.08-.18.08-.18,3.03.21,5.76,1.37,8.44,2.66,2.71,1.12,5.48,2.16,8.32,2.91,0,0-.02.2-.02.2h0Z"/>
  <path class="cls-6" d="m433.21,976.48c-2.4-1.79-4.97-3.46-7.12-5.51-.63-.78-1.21-1.62-1.55-2.71l.14-.15c2.14.56,3.56,1.93,4.82,3.6,1.33,1.5,2.62,3.04,3.86,4.62,0,0-.14.15-.14.15h0Z"/>
  <path class="cls-6" d="m439.84,973.91c-.89-.73-1.73-1.51-2.53-2.33-.4-.41-.94-.71-1.14-1.25-.22-.53-.37-1.11-.25-1.89l.16-.12c1.43.26,2.11,1.09,2.53,2.33.52,1.02.98,2.07,1.39,3.14,0,0-.16.12-.16.12h0Z"/>
  <path class="cls-6" d="m530.59,979.88c4.61,1.48,10.74,5.95,8.19,11.43,0,0-.1-.03-.1-.03.34-5.86-3.59-8.92-8.09-11.41h0Z"/>
  <path class="cls-6" d="m537.43,978.18c2.81,1.33,7.86,3.66,7.3,7.43,0,0-.1,0-.1,0-1.1-2.4-2.96-4.25-5.04-5.83-.71-.54-1.44-1.05-2.21-1.52l.04-.09h0Z"/>
  <path class="cls-6" d="m544.17,977.25c2.03,1.09,4.18,2.35,5.54,4.27.4.69.71,1.54.55,2.37h-.1c-1.21-1.9-2.57-3.6-4.28-5.1-.56-.51-1.15-1-1.77-1.46l.05-.09h0Z"/>
  <path class="cls-6" d="m550.91,975.98c2.77,1.07,6.47,4.29,5.38,7.49-.71-1.47-1.19-2.81-2.03-4.18-.87-1.29-2.05-2.41-3.4-3.22,0,0,.04-.09.04-.09h0Z"/>
  <path class="cls-6" d="m558.56,974.46c2.1,1.24,4.29,2.61,5.79,4.59.44.71.83,1.56.72,2.45l-.1.02c-.89-1.37-1.91-2.43-2.92-3.69-1.09-1.16-2.29-2.26-3.55-3.28l.05-.08h0Z"/>
  <path class="cls-6" d="m566.57,972.7c2.03,1.17,4.1,2.62,5.37,4.64.36.73.62,1.56.53,2.39l-.1.02c-1.33-1.91-2.43-3.83-4.13-5.42-.55-.55-1.12-1.07-1.73-1.55l.05-.08h0Z"/>
  <path class="cls-6" d="m577.5,969.78c2.59,1.11,5.17,2.67,7.01,4.86.58.78,1.03,1.67,1.25,2.62l-.09.05c-1.36-1.35-2.47-2.69-3.78-4.05-1.34-1.28-2.83-2.43-4.43-3.39,0,0,.04-.09.04-.09h0Z"/>
  <path class="cls-27" d="m615.15,952.91s13.8,1.87,16.39-2.3"/>
  <path class="cls-6" d="m552.41,990.54c2.73,5.3,6.16,10.28,10.61,14.28-2.66-.53-5.2-3.85-6.59-6.16-1.48-2.47-3.3-5.52-4.02-8.12h0Z"/>
  <path class="cls-6" d="m561.44,990.11c.12,2.08,1.04,3.76,2.4,5.31,0,0-.04.09-.04.09-.59.06-1.19-.21-1.63-.63-1.08-1.31-1.06-3.23-.83-4.78,0,0,.1,0,.1,0h0Z"/>
  <path class="cls-6" d="m568.49,988.62c.91,2.41,2.26,4.71,4.45,5.96-1.48.67-2.89-.83-3.38-2.08-.6-1.24-.97-2.54-1.17-3.86l.1-.02h0Z"/>
  <path class="cls-6" d="m577.53,985.73c.58,2.18,1.86,3.85,3.35,5.52,0,0-.04.09-.04.09-.64.04-1.25-.26-1.73-.66-1.21-1.31-1.55-3.24-1.68-4.94,0,0,.1-.01.1-.01h0Z"/>
  <path class="cls-6" d="m588,981.13c2.93-.61,6.49,1.51,6.94,4.58,0,0-.09.05-.09.05-.3-.25-.57-.51-.81-.78-1.25-1.21-2.21-2.76-3.94-3.35-.65-.27-1.37-.43-2.09-.4l-.02-.1h0Z"/>
  <path class="cls-6" d="m600.64,983.05c-1.04-3.03-3.03-5.76-6.2-6.76,0,0,0-.1,0-.1,1.77-.6,3.64.62,4.49,2.13.97,1.44,1.51,3.06,1.81,4.7l-.1.02h0Z"/>
  <path class="cls-6" d="m584.58,967.23c2.87.58,7.07,3.1,6.83,6.34-1.07-1.24-1.85-2.46-2.93-3.65-1.1-1.11-2.45-2.02-3.92-2.59,0,0,.02-.1.02-.1h0Z"/>
  <path class="cls-6" d="m597.57,972.7c3.67.75,10.41,2.76,10.98,6.97-2.22-2.46-4.86-4.38-7.9-5.68-1.01-.45-2.05-.87-3.11-1.19l.02-.1h0Z"/>
  <path class="cls-6" d="m624.88,975.09c-3.3,2.71-3.75,7.16-4.23,11.11-.05.58-.14,1.17-.26,1.77h-.1c-1.02-3.55,0-7.4,1.98-10.43.7-.99,1.53-1.9,2.56-2.54l.05.09h0Z"/>
  <path class="cls-6" d="m648.66,981.19c-5.26,2.53-10.31,6.47-12.03,12.28,0,0-.1,0-.1,0-.32-4.91,4.14-8.3,7.97-10.48,1.33-.72,2.7-1.37,4.13-1.88l.04.09h0Z"/>
  <path class="cls-6" d="m653.56,984.45c-4.48,3.66-8.84,7.55-12.22,12.25,0,0-.09-.03-.09-.03.64-2.97,3-5.17,5.22-7.04,2.1-1.7,4.85-4.08,7.1-5.17h0Z"/>
  <path class="cls-6" d="m660.97,989.4c-4.9,1.71-7.7,6.33-10.17,10.58-.35.63-.7,1.26-1.11,1.88l-.09-.04c.81-4.41,3.74-8.17,7.36-10.7,1.23-.81,2.56-1.49,3.99-1.82l.02.1h0Z"/>
  <path class="cls-6" d="m675.45,994.63c-4.65,3.93-7.48,9.32-9.96,14.78,0,0-.1-.03-.1-.03.27-3.08,1.65-5.98,3.56-8.39,1.74-2.27,4.15-5.07,6.5-6.37h0Z"/>
</svg>